<?xml version="1.0" encoding="UTF-8" standalone="no"?>
<!DOCTYPE svg PUBLIC "-//W3C//DTD SVG 1.1//EN"
 "http://www.w3.org/Graphics/SVG/1.1/DTD/svg11.dtd">
<!-- Generated by graphviz version 2.40.1 (20161225.0304)
 -->
<!-- Title: dependencies Pages: 1 -->
<svg width="819pt" height="284pt"
 viewBox="0.00 0.00 819.00 284.00" xmlns="http://www.w3.org/2000/svg" xmlns:xlink="http://www.w3.org/1999/xlink">
<g id="graph0" class="graph" transform="scale(1 1) rotate(0) translate(4 280)">
<title>dependencies</title>
<polygon fill="#ffffff" stroke="transparent" points="-4,4 -4,-280 815,-280 815,4 -4,4"/>
<text text-anchor="start" x="384.5091" y="-42.4" font-family="sans-serif" font-weight="bold" font-size="14.00" fill="#000000">Legend</text>
<polygon fill="#ffffb3" stroke="transparent" points="171.5,-10 171.5,-30 191.5,-30 191.5,-10 171.5,-10"/>
<text text-anchor="start" x="195.129" y="-15.4" font-family="sans-serif" font-size="14.00" fill="#000000"> &#160;Declarations</text>
<polygon fill="#8dd3c7" stroke="transparent" points="284.5,-10 284.5,-30 304.5,-30 304.5,-10 284.5,-10"/>
<text text-anchor="start" x="308.2251" y="-15.4" font-family="sans-serif" font-size="14.00" fill="#000000"> &#160;Module</text>
<polygon fill="#80b1d3" stroke="transparent" points="370.5,-10 370.5,-30 390.5,-30 390.5,-10 370.5,-10"/>
<text text-anchor="start" x="394.2812" y="-15.4" font-family="sans-serif" font-size="14.00" fill="#000000"> &#160;Bootstrap</text>
<polygon fill="#fdb462" stroke="transparent" points="467.5,-10 467.5,-30 487.5,-30 487.5,-10 467.5,-10"/>
<text text-anchor="start" x="491.1732" y="-15.4" font-family="sans-serif" font-size="14.00" fill="#000000"> &#160;Providers</text>
<polygon fill="#fb8072" stroke="transparent" points="563.5,-10 563.5,-30 583.5,-30 583.5,-10 563.5,-10"/>
<text text-anchor="start" x="587.2258" y="-15.4" font-family="sans-serif" font-size="14.00" fill="#000000"> &#160;Exports</text>
<g id="clust1" class="cluster">
<title>cluster_CoreModule</title>
<polygon fill="none" stroke="#000000" stroke-dasharray="1,5" points="8,-70 8,-268 803,-268 803,-70 8,-70"/>
</g>
<g id="clust2" class="cluster">
<title>cluster_CoreModule_declarations</title>
<polygon fill="none" stroke="#000000" points="16,-78 16,-130 795,-130 795,-78 16,-78"/>
</g>
<g id="clust9" class="cluster">
<title>cluster_CoreModule_exports</title>
<polygon fill="none" stroke="#000000" points="271,-208 271,-260 574,-260 574,-208 271,-208"/>
</g>
<!-- Error403Component -->
<g id="node1" class="node">
<title>Error403Component</title>
<polygon fill="#ffffb3" stroke="#000000" points="786.8669,-122 655.1331,-122 655.1331,-86 786.8669,-86 786.8669,-122"/>
<text text-anchor="middle" x="721" y="-99.8" font-family="Times,serif" font-size="14.00" fill="#000000">Error403Component</text>
</g>
<!-- CoreModule -->
<g id="node6" class="node">
<title>CoreModule</title>
<polygon fill="#8dd3c7" stroke="#000000" points="472.2619,-187 469.2619,-191 448.2619,-191 445.2619,-187 385.7381,-187 385.7381,-151 472.2619,-151 472.2619,-187"/>
<text text-anchor="middle" x="429" y="-164.8" font-family="Times,serif" font-size="14.00" fill="#000000">CoreModule</text>
</g>
<!-- Error403Component&#45;&gt;CoreModule -->
<g id="edge1" class="edge">
<title>Error403Component&#45;&gt;CoreModule</title>
<path fill="none" stroke="#000000" d="M721,-122.2843C721,-143.3211 721,-175 721,-175 721,-175 482.4,-175 482.4,-175"/>
<polygon fill="#000000" stroke="#000000" points="482.4001,-171.5001 472.4,-175 482.4,-178.5001 482.4001,-171.5001"/>
</g>
<!-- FooterComponent -->
<g id="node2" class="node">
<title>FooterComponent</title>
<polygon fill="#ffffb3" stroke="#000000" points="636.8809,-122 519.1191,-122 519.1191,-86 636.8809,-86 636.8809,-122"/>
<text text-anchor="middle" x="578" y="-99.8" font-family="Times,serif" font-size="14.00" fill="#000000">FooterComponent</text>
</g>
<!-- FooterComponent&#45;&gt;CoreModule -->
<g id="edge2" class="edge">
<title>FooterComponent&#45;&gt;CoreModule</title>
<path fill="none" stroke="#000000" d="M542.375,-122.0225C542.375,-139.3734 542.375,-163 542.375,-163 542.375,-163 482.5095,-163 482.5095,-163"/>
<polygon fill="#000000" stroke="#000000" points="482.5095,-159.5001 472.5095,-163 482.5095,-166.5001 482.5095,-159.5001"/>
</g>
<!-- NavigationComponent -->
<g id="node3" class="node">
<title>NavigationComponent</title>
<polygon fill="#ffffb3" stroke="#000000" points="500.5407,-122 357.4593,-122 357.4593,-86 500.5407,-86 500.5407,-122"/>
<text text-anchor="middle" x="429" y="-99.8" font-family="Times,serif" font-size="14.00" fill="#000000">NavigationComponent</text>
</g>
<!-- NavigationComponent&#45;&gt;CoreModule -->
<g id="edge3" class="edge">
<title>NavigationComponent&#45;&gt;CoreModule</title>
<path fill="none" stroke="#000000" d="M429,-122.1061C429,-122.1061 429,-140.991 429,-140.991"/>
<polygon fill="#000000" stroke="#000000" points="425.5001,-140.9909 429,-150.991 432.5001,-140.991 425.5001,-140.9909"/>
</g>
<!-- NotauthorizedComponent -->
<g id="node4" class="node">
<title>NotauthorizedComponent</title>
<polygon fill="#ffffb3" stroke="#000000" points="339.9157,-122 178.0843,-122 178.0843,-86 339.9157,-86 339.9157,-122"/>
<text text-anchor="middle" x="259" y="-99.8" font-family="Times,serif" font-size="14.00" fill="#000000">NotauthorizedComponent</text>
</g>
<!-- NotauthorizedComponent&#45;&gt;CoreModule -->
<g id="edge4" class="edge">
<title>NotauthorizedComponent&#45;&gt;CoreModule</title>
<path fill="none" stroke="#000000" d="M309.5938,-122.0225C309.5938,-139.3734 309.5938,-163 309.5938,-163 309.5938,-163 375.5538,-163 375.5538,-163"/>
<polygon fill="#000000" stroke="#000000" points="375.5539,-166.5001 385.5538,-163 375.5538,-159.5001 375.5539,-166.5001"/>
</g>
<!-- SnackBarComponent -->
<g id="node5" class="node">
<title>SnackBarComponent</title>
<polygon fill="#ffffb3" stroke="#000000" points="159.7562,-122 24.2438,-122 24.2438,-86 159.7562,-86 159.7562,-122"/>
<text text-anchor="middle" x="92" y="-99.8" font-family="Times,serif" font-size="14.00" fill="#000000">SnackBarComponent</text>
</g>
<!-- SnackBarComponent&#45;&gt;CoreModule -->
<g id="edge5" class="edge">
<title>SnackBarComponent&#45;&gt;CoreModule</title>
<path fill="none" stroke="#000000" d="M92,-122.2843C92,-143.3211 92,-175 92,-175 92,-175 375.6331,-175 375.6331,-175"/>
<polygon fill="#000000" stroke="#000000" points="375.6331,-178.5001 385.6331,-175 375.633,-171.5001 375.6331,-178.5001"/>
</g>
<!-- FooterComponent  -->
<g id="node7" class="node">
<title>FooterComponent </title>
<polygon fill="#fb8072" stroke="#000000" points="565.8814,-252 444.1186,-252 444.1186,-216 565.8814,-216 565.8814,-252"/>
<text text-anchor="middle" x="505" y="-229.8" font-family="Times,serif" font-size="14.00" fill="#000000">FooterComponent </text>
</g>
<!-- CoreModule&#45;&gt;FooterComponent  -->
<g id="edge6" class="edge">
<title>CoreModule&#45;&gt;FooterComponent </title>
<path fill="none" stroke="#000000" stroke-dasharray="5,2" d="M458.3452,-187.1061C458.3452,-187.1061 458.3452,-205.991 458.3452,-205.991"/>
<polygon fill="#000000" stroke="#000000" points="454.8453,-205.9909 458.3452,-215.991 461.8453,-205.991 454.8453,-205.9909"/>
</g>
<!-- NavigationComponent  -->
<g id="node8" class="node">
<title>NavigationComponent </title>
<polygon fill="#fb8072" stroke="#000000" points="426.54,-252 279.46,-252 279.46,-216 426.54,-216 426.54,-252"/>
<text text-anchor="middle" x="353" y="-229.8" font-family="Times,serif" font-size="14.00" fill="#000000">NavigationComponent </text>
</g>
<!-- CoreModule&#45;&gt;NavigationComponent  -->
<g id="edge7" class="edge">
<title>CoreModule&#45;&gt;NavigationComponent </title>
<path fill="none" stroke="#000000" stroke-dasharray="5,2" d="M406.0696,-187.1061C406.0696,-187.1061 406.0696,-205.991 406.0696,-205.991"/>
<polygon fill="#000000" stroke="#000000" points="402.5697,-205.9909 406.0696,-215.991 409.5697,-205.991 402.5697,-205.9909"/>
</g>
</g>
</svg>
