<?xml version="1.0" encoding="UTF-8" standalone="no"?>
<!DOCTYPE svg PUBLIC "-//W3C//DTD SVG 1.1//EN"
 "http://www.w3.org/Graphics/SVG/1.1/DTD/svg11.dtd">
<!-- Generated by graphviz version 2.40.1 (20161225.0304)
 -->
<!-- Title: dependencies Pages: 1 -->
<svg width="564pt" height="284pt"
 viewBox="0.00 0.00 564.00 284.00" xmlns="http://www.w3.org/2000/svg" xmlns:xlink="http://www.w3.org/1999/xlink">
<g id="graph0" class="graph" transform="scale(1 1) rotate(0) translate(4 280)">
<title>dependencies</title>
<polygon fill="#ffffff" stroke="transparent" points="-4,4 -4,-280 560,-280 560,4 -4,4"/>
<text text-anchor="start" x="257.0091" y="-42.4" font-family="sans-serif" font-weight="bold" font-size="14.00" fill="#000000">Legend</text>
<polygon fill="#ffffb3" stroke="transparent" points="44,-10 44,-30 64,-30 64,-10 44,-10"/>
<text text-anchor="start" x="67.629" y="-15.4" font-family="sans-serif" font-size="14.00" fill="#000000"> &#160;Declarations</text>
<polygon fill="#8dd3c7" stroke="transparent" points="157,-10 157,-30 177,-30 177,-10 157,-10"/>
<text text-anchor="start" x="180.7251" y="-15.4" font-family="sans-serif" font-size="14.00" fill="#000000"> &#160;Module</text>
<polygon fill="#80b1d3" stroke="transparent" points="243,-10 243,-30 263,-30 263,-10 243,-10"/>
<text text-anchor="start" x="266.7812" y="-15.4" font-family="sans-serif" font-size="14.00" fill="#000000"> &#160;Bootstrap</text>
<polygon fill="#fdb462" stroke="transparent" points="340,-10 340,-30 360,-30 360,-10 340,-10"/>
<text text-anchor="start" x="363.6732" y="-15.4" font-family="sans-serif" font-size="14.00" fill="#000000"> &#160;Providers</text>
<polygon fill="#fb8072" stroke="transparent" points="436,-10 436,-30 456,-30 456,-10 436,-10"/>
<text text-anchor="start" x="459.7258" y="-15.4" font-family="sans-serif" font-size="14.00" fill="#000000"> &#160;Exports</text>
<g id="clust1" class="cluster">
<title>cluster_SharedModule</title>
<polygon fill="none" stroke="#000000" stroke-dasharray="1,5" points="8,-70 8,-268 548,-268 548,-70 8,-70"/>
</g>
<g id="clust2" class="cluster">
<title>cluster_SharedModule_declarations</title>
<polygon fill="none" stroke="#000000" points="16,-78 16,-130 540,-130 540,-78 16,-78"/>
</g>
<g id="clust7" class="cluster">
<title>cluster_SharedModule_exports</title>
<polygon fill="none" stroke="#000000" points="141,-208 141,-260 462,-260 462,-208 141,-208"/>
</g>
<!-- AndSoOnPipe -->
<g id="node1" class="node">
<title>AndSoOnPipe</title>
<polygon fill="#ffffb3" stroke="#000000" points="532.3837,-122 435.6163,-122 435.6163,-86 532.3837,-86 532.3837,-122"/>
<text text-anchor="middle" x="484" y="-99.8" font-family="Times,serif" font-size="14.00" fill="#000000">AndSoOnPipe</text>
</g>
<!-- SharedModule -->
<g id="node4" class="node">
<title>SharedModule</title>
<polygon fill="#8dd3c7" stroke="#000000" points="375.4231,-187 372.4231,-191 351.4231,-191 348.4231,-187 276.5769,-187 276.5769,-151 375.4231,-151 375.4231,-187"/>
<text text-anchor="middle" x="326" y="-164.8" font-family="Times,serif" font-size="14.00" fill="#000000">SharedModule</text>
</g>
<!-- AndSoOnPipe&#45;&gt;SharedModule -->
<g id="edge1" class="edge">
<title>AndSoOnPipe&#45;&gt;SharedModule</title>
<path fill="none" stroke="#000000" d="M444.875,-122.1061C444.875,-141.3391 444.875,-169 444.875,-169 444.875,-169 385.381,-169 385.381,-169"/>
<polygon fill="#000000" stroke="#000000" points="385.381,-165.5001 375.381,-169 385.3809,-172.5001 385.381,-165.5001"/>
</g>
<!-- FieldErrorDisplayComponent -->
<g id="node2" class="node">
<title>FieldErrorDisplayComponent</title>
<polygon fill="#ffffb3" stroke="#000000" points="417.6923,-122 234.3077,-122 234.3077,-86 417.6923,-86 417.6923,-122"/>
<text text-anchor="middle" x="326" y="-99.8" font-family="Times,serif" font-size="14.00" fill="#000000">FieldErrorDisplayComponent</text>
</g>
<!-- FieldErrorDisplayComponent&#45;&gt;SharedModule -->
<g id="edge2" class="edge">
<title>FieldErrorDisplayComponent&#45;&gt;SharedModule</title>
<path fill="none" stroke="#000000" d="M326,-122.1061C326,-122.1061 326,-140.991 326,-140.991"/>
<polygon fill="#000000" stroke="#000000" points="322.5001,-140.9909 326,-150.991 329.5001,-140.991 322.5001,-140.9909"/>
</g>
<!-- MyErrorFormulaireComponent -->
<g id="node3" class="node">
<title>MyErrorFormulaireComponent</title>
<polygon fill="#ffffb3" stroke="#000000" points="216.0168,-122 23.9832,-122 23.9832,-86 216.0168,-86 216.0168,-122"/>
<text text-anchor="middle" x="120" y="-99.8" font-family="Times,serif" font-size="14.00" fill="#000000">MyErrorFormulaireComponent</text>
</g>
<!-- MyErrorFormulaireComponent&#45;&gt;SharedModule -->
<g id="edge3" class="edge">
<title>MyErrorFormulaireComponent&#45;&gt;SharedModule</title>
<path fill="none" stroke="#000000" d="M182.456,-122.1061C182.456,-141.3391 182.456,-169 182.456,-169 182.456,-169 266.6003,-169 266.6003,-169"/>
<polygon fill="#000000" stroke="#000000" points="266.6003,-172.5001 276.6003,-169 266.6003,-165.5001 266.6003,-172.5001"/>
</g>
<!-- AndSoOnPipe  -->
<g id="node5" class="node">
<title>AndSoOnPipe </title>
<polygon fill="#fb8072" stroke="#000000" points="454.3843,-252 353.6157,-252 353.6157,-216 454.3843,-216 454.3843,-252"/>
<text text-anchor="middle" x="404" y="-229.8" font-family="Times,serif" font-size="14.00" fill="#000000">AndSoOnPipe </text>
</g>
<!-- SharedModule&#45;&gt;AndSoOnPipe  -->
<g id="edge4" class="edge">
<title>SharedModule&#45;&gt;AndSoOnPipe </title>
<path fill="none" stroke="#000000" stroke-dasharray="5,2" d="M364.5096,-187.1061C364.5096,-187.1061 364.5096,-205.991 364.5096,-205.991"/>
<polygon fill="#000000" stroke="#000000" points="361.0097,-205.9909 364.5096,-215.991 368.0097,-205.991 361.0097,-205.9909"/>
</g>
<!-- FieldErrorDisplayComponent  -->
<g id="node6" class="node">
<title>FieldErrorDisplayComponent </title>
<polygon fill="#fb8072" stroke="#000000" points="335.1925,-252 148.8075,-252 148.8075,-216 335.1925,-216 335.1925,-252"/>
<text text-anchor="middle" x="242" y="-229.8" font-family="Times,serif" font-size="14.00" fill="#000000">FieldErrorDisplayComponent </text>
</g>
<!-- SharedModule&#45;&gt;FieldErrorDisplayComponent  -->
<g id="edge5" class="edge">
<title>SharedModule&#45;&gt;FieldErrorDisplayComponent </title>
<path fill="none" stroke="#000000" stroke-dasharray="5,2" d="M306.0675,-187.1061C306.0675,-187.1061 306.0675,-205.991 306.0675,-205.991"/>
<polygon fill="#000000" stroke="#000000" points="302.5676,-205.9909 306.0675,-215.991 309.5676,-205.991 302.5676,-205.9909"/>
</g>
</g>
</svg>
