<?xml version="1.0" encoding="UTF-8" standalone="no"?>
<!DOCTYPE svg PUBLIC "-//W3C//DTD SVG 1.1//EN"
 "http://www.w3.org/Graphics/SVG/1.1/DTD/svg11.dtd">
<!-- Generated by graphviz version 2.40.1 (20161225.0304)
 -->
<!-- Title: dependencies Pages: 1 -->
<svg width="1979pt" height="211pt"
 viewBox="0.00 0.00 1979.00 211.00" xmlns="http://www.w3.org/2000/svg" xmlns:xlink="http://www.w3.org/1999/xlink">
<g id="graph0" class="graph" transform="scale(1 1) rotate(0) translate(4 207)">
<title>dependencies</title>
<polygon fill="#ffffff" stroke="transparent" points="-4,4 -4,-207 1975,-207 1975,4 -4,4"/>
<text text-anchor="start" x="964.5091" y="-42.4" font-family="sans-serif" font-weight="bold" font-size="14.00" fill="#000000">Legend</text>
<polygon fill="#ffffb3" stroke="transparent" points="751.5,-10 751.5,-30 771.5,-30 771.5,-10 751.5,-10"/>
<text text-anchor="start" x="775.129" y="-15.4" font-family="sans-serif" font-size="14.00" fill="#000000"> &#160;Declarations</text>
<polygon fill="#8dd3c7" stroke="transparent" points="864.5,-10 864.5,-30 884.5,-30 884.5,-10 864.5,-10"/>
<text text-anchor="start" x="888.2251" y="-15.4" font-family="sans-serif" font-size="14.00" fill="#000000"> &#160;Module</text>
<polygon fill="#80b1d3" stroke="transparent" points="950.5,-10 950.5,-30 970.5,-30 970.5,-10 950.5,-10"/>
<text text-anchor="start" x="974.2812" y="-15.4" font-family="sans-serif" font-size="14.00" fill="#000000"> &#160;Bootstrap</text>
<polygon fill="#fdb462" stroke="transparent" points="1047.5,-10 1047.5,-30 1067.5,-30 1067.5,-10 1047.5,-10"/>
<text text-anchor="start" x="1071.1732" y="-15.4" font-family="sans-serif" font-size="14.00" fill="#000000"> &#160;Providers</text>
<polygon fill="#fb8072" stroke="transparent" points="1143.5,-10 1143.5,-30 1163.5,-30 1163.5,-10 1143.5,-10"/>
<text text-anchor="start" x="1167.2258" y="-15.4" font-family="sans-serif" font-size="14.00" fill="#000000"> &#160;Exports</text>
<g id="clust1" class="cluster">
<title>cluster_ProfileuserModule</title>
<polygon fill="none" stroke="#000000" stroke-dasharray="1,5" points="8,-70 8,-195 1963,-195 1963,-70 8,-70"/>
</g>
<g id="clust2" class="cluster">
<title>cluster_ProfileuserModule_declarations</title>
<polygon fill="none" stroke="#000000" points="263,-78 263,-130 1955,-130 1955,-78 263,-78"/>
</g>
<g id="clust12" class="cluster">
<title>cluster_ProfileuserModule_imports</title>
<polygon fill="none" stroke="#000000" points="16,-78 16,-130 255,-130 255,-78 16,-78"/>
</g>
<!-- CardCreateDocteurComponent -->
<g id="node1" class="node">
<title>CardCreateDocteurComponent</title>
<polygon fill="#ffffb3" stroke="#000000" points="1947.1629,-122 1756.8371,-122 1756.8371,-86 1947.1629,-86 1947.1629,-122"/>
<text text-anchor="middle" x="1852" y="-99.8" font-family="Times,serif" font-size="14.00" fill="#000000">CardCreateDocteurComponent</text>
</g>
<!-- ProfileuserModule -->
<g id="node10" class="node">
<title>ProfileuserModule</title>
<polygon fill="#8dd3c7" stroke="#000000" points="1009.4692,-187 1006.4692,-191 985.4692,-191 982.4692,-187 888.5308,-187 888.5308,-151 1009.4692,-151 1009.4692,-187"/>
<text text-anchor="middle" x="949" y="-164.8" font-family="Times,serif" font-size="14.00" fill="#000000">ProfileuserModule</text>
</g>
<!-- CardCreateDocteurComponent&#45;&gt;ProfileuserModule -->
<g id="edge1" class="edge">
<title>CardCreateDocteurComponent&#45;&gt;ProfileuserModule</title>
<path fill="none" stroke="#000000" d="M1852,-122.0908C1852,-145.1328 1852,-182 1852,-182 1852,-182 1019.6505,-182 1019.6505,-182"/>
<polygon fill="#000000" stroke="#000000" points="1019.6506,-178.5001 1009.6505,-182 1019.6505,-185.5001 1019.6506,-178.5001"/>
</g>
<!-- CardCreatePatientComponent -->
<g id="node2" class="node">
<title>CardCreatePatientComponent</title>
<polygon fill="#ffffb3" stroke="#000000" points="1738.9594,-122 1555.0406,-122 1555.0406,-86 1738.9594,-86 1738.9594,-122"/>
<text text-anchor="middle" x="1647" y="-99.8" font-family="Times,serif" font-size="14.00" fill="#000000">CardCreatePatientComponent</text>
</g>
<!-- CardCreatePatientComponent&#45;&gt;ProfileuserModule -->
<g id="edge2" class="edge">
<title>CardCreatePatientComponent&#45;&gt;ProfileuserModule</title>
<path fill="none" stroke="#000000" d="M1647,-122.2843C1647,-143.3211 1647,-175 1647,-175 1647,-175 1019.7219,-175 1019.7219,-175"/>
<polygon fill="#000000" stroke="#000000" points="1019.7219,-171.5001 1009.7219,-175 1019.7218,-178.5001 1019.7219,-171.5001"/>
</g>
<!-- CardDocteurComponent -->
<g id="node3" class="node">
<title>CardDocteurComponent</title>
<polygon fill="#ffffb3" stroke="#000000" points="1536.6316,-122 1383.3684,-122 1383.3684,-86 1536.6316,-86 1536.6316,-122"/>
<text text-anchor="middle" x="1460" y="-99.8" font-family="Times,serif" font-size="14.00" fill="#000000">CardDocteurComponent</text>
</g>
<!-- CardDocteurComponent&#45;&gt;ProfileuserModule -->
<g id="edge3" class="edge">
<title>CardDocteurComponent&#45;&gt;ProfileuserModule</title>
<path fill="none" stroke="#000000" d="M1460,-122.1061C1460,-141.3391 1460,-169 1460,-169 1460,-169 1019.6251,-169 1019.6251,-169"/>
<polygon fill="#000000" stroke="#000000" points="1019.6251,-165.5001 1009.6251,-169 1019.625,-172.5001 1019.6251,-165.5001"/>
</g>
<!-- CardPatientComponent -->
<g id="node4" class="node">
<title>CardPatientComponent</title>
<polygon fill="#ffffb3" stroke="#000000" points="1364.9284,-122 1217.0716,-122 1217.0716,-86 1364.9284,-86 1364.9284,-122"/>
<text text-anchor="middle" x="1291" y="-99.8" font-family="Times,serif" font-size="14.00" fill="#000000">CardPatientComponent</text>
</g>
<!-- CardPatientComponent&#45;&gt;ProfileuserModule -->
<g id="edge4" class="edge">
<title>CardPatientComponent&#45;&gt;ProfileuserModule</title>
<path fill="none" stroke="#000000" d="M1291,-122.0225C1291,-139.3734 1291,-163 1291,-163 1291,-163 1019.7487,-163 1019.7487,-163"/>
<polygon fill="#000000" stroke="#000000" points="1019.7487,-159.5001 1009.7487,-163 1019.7486,-166.5001 1019.7487,-159.5001"/>
</g>
<!-- CardprofilComponent -->
<g id="node5" class="node">
<title>CardprofilComponent</title>
<polygon fill="#ffffb3" stroke="#000000" points="1198.647,-122 1059.353,-122 1059.353,-86 1198.647,-86 1198.647,-122"/>
<text text-anchor="middle" x="1129" y="-99.8" font-family="Times,serif" font-size="14.00" fill="#000000">CardprofilComponent</text>
</g>
<!-- CardprofilComponent&#45;&gt;ProfileuserModule -->
<g id="edge5" class="edge">
<title>CardprofilComponent&#45;&gt;ProfileuserModule</title>
<path fill="none" stroke="#000000" d="M1129,-122.2396C1129,-137.5706 1129,-157 1129,-157 1129,-157 1019.6888,-157 1019.6888,-157"/>
<polygon fill="#000000" stroke="#000000" points="1019.6889,-153.5001 1009.6888,-157 1019.6888,-160.5001 1019.6889,-153.5001"/>
</g>
<!-- DetailOtherProfilsComponent -->
<g id="node6" class="node">
<title>DetailOtherProfilsComponent</title>
<polygon fill="#ffffb3" stroke="#000000" points="1041.2422,-122 856.7578,-122 856.7578,-86 1041.2422,-86 1041.2422,-122"/>
<text text-anchor="middle" x="949" y="-99.8" font-family="Times,serif" font-size="14.00" fill="#000000">DetailOtherProfilsComponent</text>
</g>
<!-- DetailOtherProfilsComponent&#45;&gt;ProfileuserModule -->
<g id="edge6" class="edge">
<title>DetailOtherProfilsComponent&#45;&gt;ProfileuserModule</title>
<path fill="none" stroke="#000000" d="M949,-122.1061C949,-122.1061 949,-140.991 949,-140.991"/>
<polygon fill="#000000" stroke="#000000" points="945.5001,-140.9909 949,-150.991 952.5001,-140.991 945.5001,-140.9909"/>
</g>
<!-- DetailProfilDocteursComponent -->
<g id="node7" class="node">
<title>DetailProfilDocteursComponent</title>
<polygon fill="#ffffb3" stroke="#000000" points="838.9566,-122 641.0434,-122 641.0434,-86 838.9566,-86 838.9566,-122"/>
<text text-anchor="middle" x="740" y="-99.8" font-family="Times,serif" font-size="14.00" fill="#000000">DetailProfilDocteursComponent</text>
</g>
<!-- DetailProfilDocteursComponent&#45;&gt;ProfileuserModule -->
<g id="edge7" class="edge">
<title>DetailProfilDocteursComponent&#45;&gt;ProfileuserModule</title>
<path fill="none" stroke="#000000" d="M740,-122.2396C740,-137.5706 740,-157 740,-157 740,-157 878.2678,-157 878.2678,-157"/>
<polygon fill="#000000" stroke="#000000" points="878.2678,-160.5001 888.2678,-157 878.2678,-153.5001 878.2678,-160.5001"/>
</g>
<!-- DetailProfilPatientsComponent -->
<g id="node8" class="node">
<title>DetailProfilPatientsComponent</title>
<polygon fill="#ffffb3" stroke="#000000" points="622.7534,-122 431.2466,-122 431.2466,-86 622.7534,-86 622.7534,-122"/>
<text text-anchor="middle" x="527" y="-99.8" font-family="Times,serif" font-size="14.00" fill="#000000">DetailProfilPatientsComponent</text>
</g>
<!-- DetailProfilPatientsComponent&#45;&gt;ProfileuserModule -->
<g id="edge8" class="edge">
<title>DetailProfilPatientsComponent&#45;&gt;ProfileuserModule</title>
<path fill="none" stroke="#000000" d="M527,-122.0225C527,-139.3734 527,-163 527,-163 527,-163 878.0883,-163 878.0883,-163"/>
<polygon fill="#000000" stroke="#000000" points="878.0883,-166.5001 888.0883,-163 878.0882,-159.5001 878.0883,-166.5001"/>
</g>
<!-- ProfileuserComponent -->
<g id="node9" class="node">
<title>ProfileuserComponent</title>
<polygon fill="#ffffb3" stroke="#000000" points="413.252,-122 270.748,-122 270.748,-86 413.252,-86 413.252,-122"/>
<text text-anchor="middle" x="342" y="-99.8" font-family="Times,serif" font-size="14.00" fill="#000000">ProfileuserComponent</text>
</g>
<!-- ProfileuserComponent&#45;&gt;ProfileuserModule -->
<g id="edge9" class="edge">
<title>ProfileuserComponent&#45;&gt;ProfileuserModule</title>
<path fill="none" stroke="#000000" d="M342,-122.1061C342,-141.3391 342,-169 342,-169 342,-169 878.2996,-169 878.2996,-169"/>
<polygon fill="#000000" stroke="#000000" points="878.2996,-172.5001 888.2996,-169 878.2996,-165.5001 878.2996,-172.5001"/>
</g>
<!-- MaterialModule -->
<g id="node11" class="node">
<title>MaterialModule</title>
<polygon fill="#8dd3c7" stroke="#000000" points="247.4706,-122 244.4706,-126 223.4706,-126 220.4706,-122 140.5294,-122 140.5294,-86 247.4706,-86 247.4706,-122"/>
<text text-anchor="middle" x="194" y="-99.8" font-family="Times,serif" font-size="14.00" fill="#000000">MaterialModule</text>
</g>
<!-- MaterialModule&#45;&gt;ProfileuserModule -->
<g id="edge10" class="edge">
<title>MaterialModule&#45;&gt;ProfileuserModule</title>
<path fill="none" stroke="#000000" d="M194,-122.2843C194,-143.3211 194,-175 194,-175 194,-175 878.4914,-175 878.4914,-175"/>
<polygon fill="#000000" stroke="#000000" points="878.4915,-178.5001 888.4914,-175 878.4914,-171.5001 878.4915,-178.5001"/>
</g>
<!-- SharedModule -->
<g id="node12" class="node">
<title>SharedModule</title>
<polygon fill="#8dd3c7" stroke="#000000" points="122.4231,-122 119.4231,-126 98.4231,-126 95.4231,-122 23.5769,-122 23.5769,-86 122.4231,-86 122.4231,-122"/>
<text text-anchor="middle" x="73" y="-99.8" font-family="Times,serif" font-size="14.00" fill="#000000">SharedModule</text>
</g>
<!-- SharedModule&#45;&gt;ProfileuserModule -->
<g id="edge11" class="edge">
<title>SharedModule&#45;&gt;ProfileuserModule</title>
<path fill="none" stroke="#000000" d="M73,-122.0908C73,-145.1328 73,-182 73,-182 73,-182 878.4433,-182 878.4433,-182"/>
<polygon fill="#000000" stroke="#000000" points="878.4434,-185.5001 888.4433,-182 878.4433,-178.5001 878.4434,-185.5001"/>
</g>
</g>
</svg>
