<?xml version="1.0" encoding="UTF-8" standalone="no"?>
<!DOCTYPE svg PUBLIC "-//W3C//DTD SVG 1.1//EN"
 "http://www.w3.org/Graphics/SVG/1.1/DTD/svg11.dtd">
<!-- Generated by graphviz version 2.40.1 (20161225.0304)
 -->
<!-- Title: dependencies Pages: 1 -->
<svg width="504pt" height="211pt"
 viewBox="0.00 0.00 504.00 211.00" xmlns="http://www.w3.org/2000/svg" xmlns:xlink="http://www.w3.org/1999/xlink">
<g id="graph0" class="graph" transform="scale(1 1) rotate(0) translate(4 207)">
<title>dependencies</title>
<polygon fill="#ffffff" stroke="transparent" points="-4,4 -4,-207 500,-207 500,4 -4,4"/>
<text text-anchor="start" x="227.0091" y="-42.4" font-family="sans-serif" font-weight="bold" font-size="14.00" fill="#000000">Legend</text>
<polygon fill="#ffffb3" stroke="transparent" points="14,-10 14,-30 34,-30 34,-10 14,-10"/>
<text text-anchor="start" x="37.629" y="-15.4" font-family="sans-serif" font-size="14.00" fill="#000000"> &#160;Declarations</text>
<polygon fill="#8dd3c7" stroke="transparent" points="127,-10 127,-30 147,-30 147,-10 127,-10"/>
<text text-anchor="start" x="150.7251" y="-15.4" font-family="sans-serif" font-size="14.00" fill="#000000"> &#160;Module</text>
<polygon fill="#80b1d3" stroke="transparent" points="213,-10 213,-30 233,-30 233,-10 213,-10"/>
<text text-anchor="start" x="236.7812" y="-15.4" font-family="sans-serif" font-size="14.00" fill="#000000"> &#160;Bootstrap</text>
<polygon fill="#fdb462" stroke="transparent" points="310,-10 310,-30 330,-30 330,-10 310,-10"/>
<text text-anchor="start" x="333.6732" y="-15.4" font-family="sans-serif" font-size="14.00" fill="#000000"> &#160;Providers</text>
<polygon fill="#fb8072" stroke="transparent" points="406,-10 406,-30 426,-30 426,-10 406,-10"/>
<text text-anchor="start" x="429.7258" y="-15.4" font-family="sans-serif" font-size="14.00" fill="#000000"> &#160;Exports</text>
<g id="clust1" class="cluster">
<title>cluster_RendezvousModule</title>
<polygon fill="none" stroke="#000000" stroke-dasharray="1,5" points="58,-70 58,-195 438,-195 438,-70 58,-70"/>
</g>
<g id="clust2" class="cluster">
<title>cluster_RendezvousModule_declarations</title>
<polygon fill="none" stroke="#000000" points="264,-78 264,-130 430,-130 430,-78 264,-78"/>
</g>
<g id="clust4" class="cluster">
<title>cluster_RendezvousModule_imports</title>
<polygon fill="none" stroke="#000000" points="66,-78 66,-130 256,-130 256,-78 66,-78"/>
</g>
<!-- RendezvousComponent -->
<g id="node1" class="node">
<title>RendezvousComponent</title>
<polygon fill="#ffffb3" stroke="#000000" points="421.7576,-122 272.2424,-122 272.2424,-86 421.7576,-86 421.7576,-122"/>
<text text-anchor="middle" x="347" y="-99.8" font-family="Times,serif" font-size="14.00" fill="#000000">RendezvousComponent</text>
</g>
<!-- RendezvousModule -->
<g id="node2" class="node">
<title>RendezvousModule</title>
<polygon fill="#8dd3c7" stroke="#000000" points="317.9748,-187 314.9748,-191 293.9748,-191 290.9748,-187 190.0252,-187 190.0252,-151 317.9748,-151 317.9748,-187"/>
<text text-anchor="middle" x="254" y="-164.8" font-family="Times,serif" font-size="14.00" fill="#000000">RendezvousModule</text>
</g>
<!-- RendezvousComponent&#45;&gt;RendezvousModule -->
<g id="edge1" class="edge">
<title>RendezvousComponent&#45;&gt;RendezvousModule</title>
<path fill="none" stroke="#000000" d="M295.0544,-122.1061C295.0544,-122.1061 295.0544,-140.991 295.0544,-140.991"/>
<polygon fill="#000000" stroke="#000000" points="291.5544,-140.9909 295.0544,-150.991 298.5544,-140.991 291.5544,-140.9909"/>
</g>
<!-- RendezvousRoutingModule -->
<g id="node3" class="node">
<title>RendezvousRoutingModule</title>
<polygon fill="#8dd3c7" stroke="#000000" points="247.5926,-122 244.5926,-126 223.5926,-126 220.5926,-122 74.4074,-122 74.4074,-86 247.5926,-86 247.5926,-122"/>
<text text-anchor="middle" x="161" y="-99.8" font-family="Times,serif" font-size="14.00" fill="#000000">RendezvousRoutingModule</text>
</g>
<!-- RendezvousRoutingModule&#45;&gt;RendezvousModule -->
<g id="edge2" class="edge">
<title>RendezvousRoutingModule&#45;&gt;RendezvousModule</title>
<path fill="none" stroke="#000000" d="M218.7795,-122.1061C218.7795,-122.1061 218.7795,-140.991 218.7795,-140.991"/>
<polygon fill="#000000" stroke="#000000" points="215.2795,-140.9909 218.7795,-150.991 222.2795,-140.991 215.2795,-140.9909"/>
</g>
</g>
</svg>
