<?xml version="1.0" encoding="UTF-8" standalone="no"?>
<!DOCTYPE svg PUBLIC "-//W3C//DTD SVG 1.1//EN"
 "http://www.w3.org/Graphics/SVG/1.1/DTD/svg11.dtd">
<!-- Generated by graphviz version 2.40.1 (20161225.0304)
 -->
<!-- Title: dependencies Pages: 1 -->
<svg width="1043pt" height="284pt"
 viewBox="0.00 0.00 1043.00 284.00" xmlns="http://www.w3.org/2000/svg" xmlns:xlink="http://www.w3.org/1999/xlink">
<g id="graph0" class="graph" transform="scale(1 1) rotate(0) translate(4 280)">
<title>dependencies</title>
<polygon fill="#ffffff" stroke="transparent" points="-4,4 -4,-280 1039,-280 1039,4 -4,4"/>
<text text-anchor="start" x="496.5091" y="-42.4" font-family="sans-serif" font-weight="bold" font-size="14.00" fill="#000000">Legend</text>
<polygon fill="#ffffb3" stroke="transparent" points="283.5,-10 283.5,-30 303.5,-30 303.5,-10 283.5,-10"/>
<text text-anchor="start" x="307.129" y="-15.4" font-family="sans-serif" font-size="14.00" fill="#000000"> &#160;Declarations</text>
<polygon fill="#8dd3c7" stroke="transparent" points="396.5,-10 396.5,-30 416.5,-30 416.5,-10 396.5,-10"/>
<text text-anchor="start" x="420.2251" y="-15.4" font-family="sans-serif" font-size="14.00" fill="#000000"> &#160;Module</text>
<polygon fill="#80b1d3" stroke="transparent" points="482.5,-10 482.5,-30 502.5,-30 502.5,-10 482.5,-10"/>
<text text-anchor="start" x="506.2812" y="-15.4" font-family="sans-serif" font-size="14.00" fill="#000000"> &#160;Bootstrap</text>
<polygon fill="#fdb462" stroke="transparent" points="579.5,-10 579.5,-30 599.5,-30 599.5,-10 579.5,-10"/>
<text text-anchor="start" x="603.1732" y="-15.4" font-family="sans-serif" font-size="14.00" fill="#000000"> &#160;Providers</text>
<polygon fill="#fb8072" stroke="transparent" points="675.5,-10 675.5,-30 695.5,-30 695.5,-10 675.5,-10"/>
<text text-anchor="start" x="699.2258" y="-15.4" font-family="sans-serif" font-size="14.00" fill="#000000"> &#160;Exports</text>
<g id="clust1" class="cluster">
<title>cluster_AppModule</title>
<polygon fill="none" stroke="#000000" stroke-dasharray="1,5" points="8,-70 8,-268 1027,-268 1027,-70 8,-70"/>
</g>
<g id="clust2" class="cluster">
<title>cluster_AppModule_declarations</title>
<polygon fill="none" stroke="#000000" points="737,-78 737,-130 1019,-130 1019,-78 737,-78"/>
</g>
<g id="clust5" class="cluster">
<title>cluster_AppModule_imports</title>
<polygon fill="none" stroke="#000000" points="355,-78 355,-130 729,-130 729,-78 355,-78"/>
</g>
<g id="clust7" class="cluster">
<title>cluster_AppModule_bootstrap</title>
<polygon fill="none" stroke="#000000" points="469,-208 469,-260 593,-260 593,-208 469,-208"/>
</g>
<g id="clust8" class="cluster">
<title>cluster_AppModule_providers</title>
<polygon fill="none" stroke="#000000" points="16,-78 16,-130 347,-130 347,-78 16,-78"/>
</g>
<!-- AppComponent -->
<g id="node1" class="node">
<title>AppComponent</title>
<polygon fill="#ffffb3" stroke="#000000" points="1010.9399,-122 905.0601,-122 905.0601,-86 1010.9399,-86 1010.9399,-122"/>
<text text-anchor="middle" x="958" y="-99.8" font-family="Times,serif" font-size="14.00" fill="#000000">AppComponent</text>
</g>
<!-- AppModule -->
<g id="node3" class="node">
<title>AppModule</title>
<polygon fill="#8dd3c7" stroke="#000000" points="572.6571,-187 569.6571,-191 548.6571,-191 545.6571,-187 489.3429,-187 489.3429,-151 572.6571,-151 572.6571,-187"/>
<text text-anchor="middle" x="531" y="-164.8" font-family="Times,serif" font-size="14.00" fill="#000000">AppModule</text>
</g>
<!-- AppComponent&#45;&gt;AppModule -->
<g id="edge1" class="edge">
<title>AppComponent&#45;&gt;AppModule</title>
<path fill="none" stroke="#000000" d="M958,-122.2921C958,-144.2057 958,-178 958,-178 958,-178 582.72,-178 582.72,-178"/>
<polygon fill="#000000" stroke="#000000" points="582.7201,-174.5001 572.72,-178 582.72,-181.5001 582.7201,-174.5001"/>
</g>
<!-- DashboardComponent -->
<g id="node2" class="node">
<title>DashboardComponent</title>
<polygon fill="#ffffb3" stroke="#000000" points="886.9734,-122 745.0266,-122 745.0266,-86 886.9734,-86 886.9734,-122"/>
<text text-anchor="middle" x="816" y="-99.8" font-family="Times,serif" font-size="14.00" fill="#000000">DashboardComponent</text>
</g>
<!-- DashboardComponent&#45;&gt;AppModule -->
<g id="edge2" class="edge">
<title>DashboardComponent&#45;&gt;AppModule</title>
<path fill="none" stroke="#000000" d="M816,-122.1061C816,-141.3391 816,-169 816,-169 816,-169 582.7467,-169 582.7467,-169"/>
<polygon fill="#000000" stroke="#000000" points="582.7467,-165.5001 572.7467,-169 582.7466,-172.5001 582.7467,-165.5001"/>
</g>
<!-- AppComponent  -->
<g id="node7" class="node">
<title>AppComponent </title>
<polygon fill="#80b1d3" stroke="#000000" points="585.439,-252 476.561,-252 476.561,-216 585.439,-216 585.439,-252"/>
<text text-anchor="middle" x="531" y="-229.8" font-family="Times,serif" font-size="14.00" fill="#000000">AppComponent </text>
</g>
<!-- AppModule&#45;&gt;AppComponent  -->
<g id="edge6" class="edge">
<title>AppModule&#45;&gt;AppComponent </title>
<path fill="none" stroke="#000000" stroke-dasharray="1,5" d="M531,-187.1061C531,-187.1061 531,-205.991 531,-205.991"/>
<polygon fill="#000000" stroke="#000000" points="527.5001,-205.9909 531,-215.991 534.5001,-205.991 527.5001,-205.9909"/>
</g>
<!-- AppRoutingModule -->
<g id="node4" class="node">
<title>AppRoutingModule</title>
<polygon fill="#8dd3c7" stroke="#000000" points="721.2744,-122 718.2744,-126 697.2744,-126 694.2744,-122 592.7256,-122 592.7256,-86 721.2744,-86 721.2744,-122"/>
<text text-anchor="middle" x="657" y="-99.8" font-family="Times,serif" font-size="14.00" fill="#000000">AppRoutingModule</text>
</g>
<!-- AppRoutingModule&#45;&gt;AppModule -->
<g id="edge3" class="edge">
<title>AppRoutingModule&#45;&gt;AppModule</title>
<path fill="none" stroke="#000000" d="M657,-122.027C657,-138.3976 657,-160 657,-160 657,-160 582.9562,-160 582.9562,-160"/>
<polygon fill="#000000" stroke="#000000" points="582.9562,-156.5001 572.9562,-160 582.9561,-163.5001 582.9562,-156.5001"/>
</g>
<!-- CoreModule -->
<g id="node5" class="node">
<title>CoreModule</title>
<polygon fill="#8dd3c7" stroke="#000000" points="574.2619,-122 571.2619,-126 550.2619,-126 547.2619,-122 487.7381,-122 487.7381,-86 574.2619,-86 574.2619,-122"/>
<text text-anchor="middle" x="531" y="-99.8" font-family="Times,serif" font-size="14.00" fill="#000000">CoreModule</text>
</g>
<!-- CoreModule&#45;&gt;AppModule -->
<g id="edge4" class="edge">
<title>CoreModule&#45;&gt;AppModule</title>
<path fill="none" stroke="#000000" d="M531,-122.1061C531,-122.1061 531,-140.991 531,-140.991"/>
<polygon fill="#000000" stroke="#000000" points="527.5001,-140.9909 531,-150.991 534.5001,-140.991 527.5001,-140.9909"/>
</g>
<!-- MaterialModule -->
<g id="node6" class="node">
<title>MaterialModule</title>
<polygon fill="#8dd3c7" stroke="#000000" points="469.4706,-122 466.4706,-126 445.4706,-126 442.4706,-122 362.5294,-122 362.5294,-86 469.4706,-86 469.4706,-122"/>
<text text-anchor="middle" x="416" y="-99.8" font-family="Times,serif" font-size="14.00" fill="#000000">MaterialModule</text>
</g>
<!-- MaterialModule&#45;&gt;AppModule -->
<g id="edge5" class="edge">
<title>MaterialModule&#45;&gt;AppModule</title>
<path fill="none" stroke="#000000" d="M416,-122.027C416,-138.3976 416,-160 416,-160 416,-160 479.157,-160 479.157,-160"/>
<polygon fill="#000000" stroke="#000000" points="479.1571,-163.5001 489.157,-160 479.157,-156.5001 479.1571,-163.5001"/>
</g>
<!-- ErrorInterceptors -->
<g id="node8" class="node">
<title>ErrorInterceptors</title>
<ellipse fill="#fdb462" stroke="#000000" cx="261" cy="-104" rx="77.5434" ry="18"/>
<text text-anchor="middle" x="261" y="-99.8" font-family="Times,serif" font-size="14.00" fill="#000000">ErrorInterceptors</text>
</g>
<!-- ErrorInterceptors&#45;&gt;AppModule -->
<g id="edge7" class="edge">
<title>ErrorInterceptors&#45;&gt;AppModule</title>
<path fill="none" stroke="#000000" d="M261,-122.1061C261,-141.3391 261,-169 261,-169 261,-169 479.1087,-169 479.1087,-169"/>
<polygon fill="#000000" stroke="#000000" points="479.1088,-172.5001 489.1087,-169 479.1087,-165.5001 479.1088,-172.5001"/>
</g>
<!-- JwtInterceptors -->
<g id="node9" class="node">
<title>JwtInterceptors</title>
<ellipse fill="#fdb462" stroke="#000000" cx="95" cy="-104" rx="70.62" ry="18"/>
<text text-anchor="middle" x="95" y="-99.8" font-family="Times,serif" font-size="14.00" fill="#000000">JwtInterceptors</text>
</g>
<!-- JwtInterceptors&#45;&gt;AppModule -->
<g id="edge8" class="edge">
<title>JwtInterceptors&#45;&gt;AppModule</title>
<path fill="none" stroke="#000000" d="M95,-122.2921C95,-144.2057 95,-178 95,-178 95,-178 479.1945,-178 479.1945,-178"/>
<polygon fill="#000000" stroke="#000000" points="479.1945,-181.5001 489.1945,-178 479.1945,-174.5001 479.1945,-181.5001"/>
</g>
</g>
</svg>
