<?xml version="1.0" encoding="UTF-8" standalone="no"?>
<!DOCTYPE svg PUBLIC "-//W3C//DTD SVG 1.1//EN"
 "http://www.w3.org/Graphics/SVG/1.1/DTD/svg11.dtd">
<!-- Generated by graphviz version 2.40.1 (20161225.0304)
 -->
<!-- Title: dependencies Pages: 1 -->
<svg width="5699pt" height="360pt"
 viewBox="0.00 0.00 5699.00 360.00" xmlns="http://www.w3.org/2000/svg" xmlns:xlink="http://www.w3.org/1999/xlink">
<g id="graph0" class="graph" transform="scale(1 1) rotate(0) translate(4 356)">
<title>dependencies</title>
<polygon fill="#ffffff" stroke="transparent" points="-4,4 -4,-356 5695,-356 5695,4 -4,4"/>
<text text-anchor="start" x="2824.5091" y="-42.4" font-family="sans-serif" font-weight="bold" font-size="14.00" fill="#000000">Legend</text>
<polygon fill="#ffffb3" stroke="transparent" points="2611.5,-10 2611.5,-30 2631.5,-30 2631.5,-10 2611.5,-10"/>
<text text-anchor="start" x="2635.129" y="-15.4" font-family="sans-serif" font-size="14.00" fill="#000000"> &#160;Declarations</text>
<polygon fill="#8dd3c7" stroke="transparent" points="2724.5,-10 2724.5,-30 2744.5,-30 2744.5,-10 2724.5,-10"/>
<text text-anchor="start" x="2748.2251" y="-15.4" font-family="sans-serif" font-size="14.00" fill="#000000"> &#160;Module</text>
<polygon fill="#80b1d3" stroke="transparent" points="2810.5,-10 2810.5,-30 2830.5,-30 2830.5,-10 2810.5,-10"/>
<text text-anchor="start" x="2834.2812" y="-15.4" font-family="sans-serif" font-size="14.00" fill="#000000"> &#160;Bootstrap</text>
<polygon fill="#fdb462" stroke="transparent" points="2907.5,-10 2907.5,-30 2927.5,-30 2927.5,-10 2907.5,-10"/>
<text text-anchor="start" x="2931.1732" y="-15.4" font-family="sans-serif" font-size="14.00" fill="#000000"> &#160;Providers</text>
<polygon fill="#fb8072" stroke="transparent" points="3003.5,-10 3003.5,-30 3023.5,-30 3023.5,-10 3003.5,-10"/>
<text text-anchor="start" x="3027.2258" y="-15.4" font-family="sans-serif" font-size="14.00" fill="#000000"> &#160;Exports</text>
<g id="clust1" class="cluster">
<title>cluster_AppModule</title>
<polygon fill="none" stroke="#000000" stroke-dasharray="1,5" points="2222,-146 2222,-344 3241,-344 3241,-146 2222,-146"/>
</g>
<g id="clust2" class="cluster">
<title>cluster_AppModule_declarations</title>
<polygon fill="none" stroke="#000000" points="2951,-154 2951,-206 3233,-206 3233,-154 2951,-154"/>
</g>
<g id="clust5" class="cluster">
<title>cluster_AppModule_imports</title>
<polygon fill="none" stroke="#000000" points="2230,-154 2230,-206 2604,-206 2604,-154 2230,-154"/>
</g>
<g id="clust7" class="cluster">
<title>cluster_AppModule_bootstrap</title>
<polygon fill="none" stroke="#000000" points="2629,-284 2629,-336 2753,-336 2753,-284 2629,-284"/>
</g>
<g id="clust8" class="cluster">
<title>cluster_AppModule_providers</title>
<polygon fill="none" stroke="#000000" points="2612,-154 2612,-206 2943,-206 2943,-154 2612,-154"/>
</g>
<g id="clust15" class="cluster">
<title>cluster_CoreModule</title>
<polygon fill="none" stroke="#000000" stroke-dasharray="1,5" points="1844,-70 1844,-138 2950,-138 2950,-70 1844,-70"/>
</g>
<g id="clust16" class="cluster">
<title>cluster_CoreModule_declarations</title>
<polygon fill="none" stroke="#000000" points="2163,-78 2163,-130 2942,-130 2942,-78 2163,-78"/>
</g>
<g id="clust23" class="cluster">
<title>cluster_CoreModule_exports</title>
<polygon fill="none" stroke="#000000" points="1852,-78 1852,-130 2155,-130 2155,-78 1852,-78"/>
</g>
<g id="clust26" class="cluster">
<title>cluster_DocteursModule</title>
<polygon fill="none" stroke="#000000" stroke-dasharray="1,5" points="3249,-70 3249,-206 3593,-206 3593,-70 3249,-70"/>
</g>
<g id="clust27" class="cluster">
<title>cluster_DocteursModule_declarations</title>
<polygon fill="none" stroke="#000000" points="3437,-78 3437,-130 3585,-130 3585,-78 3437,-78"/>
</g>
<g id="clust29" class="cluster">
<title>cluster_DocteursModule_imports</title>
<polygon fill="none" stroke="#000000" points="3257,-78 3257,-130 3429,-130 3429,-78 3257,-78"/>
</g>
<g id="clust39" class="cluster">
<title>cluster_EndpointModule</title>
<polygon fill="none" stroke="#000000" stroke-dasharray="1,5" points="3601,-70 3601,-206 3945,-206 3945,-70 3601,-70"/>
</g>
<g id="clust40" class="cluster">
<title>cluster_EndpointModule_declarations</title>
<polygon fill="none" stroke="#000000" points="3789,-78 3789,-130 3937,-130 3937,-78 3789,-78"/>
</g>
<g id="clust42" class="cluster">
<title>cluster_EndpointModule_imports</title>
<polygon fill="none" stroke="#000000" points="3609,-78 3609,-130 3781,-130 3781,-78 3609,-78"/>
</g>
<g id="clust52" class="cluster">
<title>cluster_Error404Module</title>
<polygon fill="none" stroke="#000000" stroke-dasharray="1,5" points="3953,-70 3953,-206 4297,-206 4297,-70 3953,-70"/>
</g>
<g id="clust53" class="cluster">
<title>cluster_Error404Module_declarations</title>
<polygon fill="none" stroke="#000000" points="4141,-78 4141,-130 4289,-130 4289,-78 4141,-78"/>
</g>
<g id="clust55" class="cluster">
<title>cluster_Error404Module_imports</title>
<polygon fill="none" stroke="#000000" points="3961,-78 3961,-130 4133,-130 4133,-78 3961,-78"/>
</g>
<g id="clust65" class="cluster">
<title>cluster_LoginModule</title>
<polygon fill="none" stroke="#000000" stroke-dasharray="1,5" points="4305,-70 4305,-206 4613,-206 4613,-70 4305,-70"/>
</g>
<g id="clust66" class="cluster">
<title>cluster_LoginModule_declarations</title>
<polygon fill="none" stroke="#000000" points="4475,-78 4475,-130 4605,-130 4605,-78 4475,-78"/>
</g>
<g id="clust68" class="cluster">
<title>cluster_LoginModule_imports</title>
<polygon fill="none" stroke="#000000" points="4313,-78 4313,-130 4467,-130 4467,-78 4313,-78"/>
</g>
<g id="clust84" class="cluster">
<title>cluster_PatientsModule</title>
<polygon fill="none" stroke="#000000" stroke-dasharray="1,5" points="4621,-70 4621,-206 4951,-206 4951,-70 4621,-70"/>
</g>
<g id="clust85" class="cluster">
<title>cluster_PatientsModule_declarations</title>
<polygon fill="none" stroke="#000000" points="4801,-78 4801,-130 4943,-130 4943,-78 4801,-78"/>
</g>
<g id="clust87" class="cluster">
<title>cluster_PatientsModule_imports</title>
<polygon fill="none" stroke="#000000" points="4629,-78 4629,-130 4793,-130 4793,-78 4629,-78"/>
</g>
<g id="clust97" class="cluster">
<title>cluster_ProfileuserModule</title>
<polygon fill="none" stroke="#000000" stroke-dasharray="1,5" points="384,-146 384,-271 2214,-271 2214,-146 384,-146"/>
</g>
<g id="clust98" class="cluster">
<title>cluster_ProfileuserModule_declarations</title>
<polygon fill="none" stroke="#000000" points="514,-154 514,-206 2206,-206 2206,-154 514,-154"/>
</g>
<g id="clust108" class="cluster">
<title>cluster_ProfileuserModule_imports</title>
<polygon fill="none" stroke="#000000" points="392,-154 392,-206 506,-206 506,-154 392,-154"/>
</g>
<g id="clust112" class="cluster">
<title>cluster_RegisterModule</title>
<polygon fill="none" stroke="#000000" stroke-dasharray="1,5" points="4959,-70 4959,-206 5295,-206 5295,-70 4959,-70"/>
</g>
<g id="clust113" class="cluster">
<title>cluster_RegisterModule_declarations</title>
<polygon fill="none" stroke="#000000" points="5143,-78 5143,-130 5287,-130 5287,-78 5143,-78"/>
</g>
<g id="clust115" class="cluster">
<title>cluster_RegisterModule_imports</title>
<polygon fill="none" stroke="#000000" points="4967,-78 4967,-130 5135,-130 5135,-78 4967,-78"/>
</g>
<g id="clust125" class="cluster">
<title>cluster_RendezvousModule</title>
<polygon fill="none" stroke="#000000" stroke-dasharray="1,5" points="5303,-70 5303,-206 5683,-206 5683,-70 5303,-70"/>
</g>
<g id="clust126" class="cluster">
<title>cluster_RendezvousModule_declarations</title>
<polygon fill="none" stroke="#000000" points="5509,-78 5509,-130 5675,-130 5675,-78 5509,-78"/>
</g>
<g id="clust128" class="cluster">
<title>cluster_RendezvousModule_imports</title>
<polygon fill="none" stroke="#000000" points="5311,-78 5311,-130 5501,-130 5501,-78 5311,-78"/>
</g>
<g id="clust138" class="cluster">
<title>cluster_SharedModule</title>
<polygon fill="none" stroke="#000000" stroke-dasharray="1,5" points="8,-70 8,-138 877,-138 877,-70 8,-70"/>
</g>
<g id="clust139" class="cluster">
<title>cluster_SharedModule_declarations</title>
<polygon fill="none" stroke="#000000" points="345,-78 345,-130 869,-130 869,-78 345,-78"/>
</g>
<g id="clust144" class="cluster">
<title>cluster_SharedModule_exports</title>
<polygon fill="none" stroke="#000000" points="16,-78 16,-130 337,-130 337,-78 16,-78"/>
</g>
<!-- AppComponent -->
<g id="node1" class="node">
<title>AppComponent</title>
<polygon fill="#ffffb3" stroke="#000000" points="3224.9399,-198 3119.0601,-198 3119.0601,-162 3224.9399,-162 3224.9399,-198"/>
<text text-anchor="middle" x="3172" y="-175.8" font-family="Times,serif" font-size="14.00" fill="#000000">AppComponent</text>
</g>
<!-- AppModule -->
<g id="node3" class="node">
<title>AppModule</title>
<polygon fill="#8dd3c7" stroke="#000000" points="2732.6571,-263 2729.6571,-267 2708.6571,-267 2705.6571,-263 2649.3429,-263 2649.3429,-227 2732.6571,-227 2732.6571,-263"/>
<text text-anchor="middle" x="2691" y="-240.8" font-family="Times,serif" font-size="14.00" fill="#000000">AppModule</text>
</g>
<!-- AppComponent&#45;&gt;AppModule -->
<g id="edge1" class="edge">
<title>AppComponent&#45;&gt;AppModule</title>
<path fill="none" stroke="#000000" d="M3172,-198.2921C3172,-220.2057 3172,-254 3172,-254 3172,-254 2742.8442,-254 2742.8442,-254"/>
<polygon fill="#000000" stroke="#000000" points="2742.8442,-250.5001 2732.8442,-254 2742.8441,-257.5001 2742.8442,-250.5001"/>
</g>
<!-- DashboardComponent -->
<g id="node2" class="node">
<title>DashboardComponent</title>
<polygon fill="#ffffb3" stroke="#000000" points="3100.9734,-198 2959.0266,-198 2959.0266,-162 3100.9734,-162 3100.9734,-198"/>
<text text-anchor="middle" x="3030" y="-175.8" font-family="Times,serif" font-size="14.00" fill="#000000">DashboardComponent</text>
</g>
<!-- DashboardComponent&#45;&gt;AppModule -->
<g id="edge2" class="edge">
<title>DashboardComponent&#45;&gt;AppModule</title>
<path fill="none" stroke="#000000" d="M3030,-198.1061C3030,-217.3391 3030,-245 3030,-245 3030,-245 2742.9081,-245 2742.9081,-245"/>
<polygon fill="#000000" stroke="#000000" points="2742.9081,-241.5001 2732.9081,-245 2742.908,-248.5001 2742.9081,-241.5001"/>
</g>
<!-- AppComponent  -->
<g id="node7" class="node">
<title>AppComponent </title>
<polygon fill="#80b1d3" stroke="#000000" points="2745.439,-328 2636.561,-328 2636.561,-292 2745.439,-292 2745.439,-328"/>
<text text-anchor="middle" x="2691" y="-305.8" font-family="Times,serif" font-size="14.00" fill="#000000">AppComponent </text>
</g>
<!-- AppModule&#45;&gt;AppComponent  -->
<g id="edge6" class="edge">
<title>AppModule&#45;&gt;AppComponent </title>
<path fill="none" stroke="#000000" stroke-dasharray="1,5" d="M2691,-263.1061C2691,-263.1061 2691,-281.991 2691,-281.991"/>
<polygon fill="#000000" stroke="#000000" points="2687.5001,-281.9909 2691,-291.991 2694.5001,-281.991 2687.5001,-281.9909"/>
</g>
<!-- AppRoutingModule -->
<g id="node4" class="node">
<title>AppRoutingModule</title>
<polygon fill="#8dd3c7" stroke="#000000" points="2596.2744,-198 2593.2744,-202 2572.2744,-202 2569.2744,-198 2467.7256,-198 2467.7256,-162 2596.2744,-162 2596.2744,-198"/>
<text text-anchor="middle" x="2532" y="-175.8" font-family="Times,serif" font-size="14.00" fill="#000000">AppRoutingModule</text>
</g>
<!-- AppRoutingModule&#45;&gt;AppModule -->
<g id="edge3" class="edge">
<title>AppRoutingModule&#45;&gt;AppModule</title>
<path fill="none" stroke="#000000" d="M2532,-198.2843C2532,-219.3211 2532,-251 2532,-251 2532,-251 2639.2246,-251 2639.2246,-251"/>
<polygon fill="#000000" stroke="#000000" points="2639.2247,-254.5001 2649.2246,-251 2639.2246,-247.5001 2639.2247,-254.5001"/>
</g>
<!-- CoreModule -->
<g id="node5" class="node">
<title>CoreModule</title>
<polygon fill="#8dd3c7" stroke="#000000" points="2449.2619,-198 2446.2619,-202 2425.2619,-202 2422.2619,-198 2362.7381,-198 2362.7381,-162 2449.2619,-162 2449.2619,-198"/>
<text text-anchor="middle" x="2406" y="-175.8" font-family="Times,serif" font-size="14.00" fill="#000000">CoreModule</text>
</g>
<!-- CoreModule&#45;&gt;AppModule -->
<g id="edge4" class="edge">
<title>CoreModule&#45;&gt;AppModule</title>
<path fill="none" stroke="#000000" d="M2406,-198.1554C2406,-220.3519 2406,-255 2406,-255 2406,-255 2639.2533,-255 2639.2533,-255"/>
<polygon fill="#000000" stroke="#000000" points="2639.2534,-258.5001 2649.2533,-255 2639.2533,-251.5001 2639.2534,-258.5001"/>
</g>
<!-- FooterComponent  -->
<g id="node15" class="node">
<title>FooterComponent </title>
<polygon fill="#fb8072" stroke="#000000" points="2146.8814,-122 2025.1186,-122 2025.1186,-86 2146.8814,-86 2146.8814,-122"/>
<text text-anchor="middle" x="2086" y="-99.8" font-family="Times,serif" font-size="14.00" fill="#000000">FooterComponent </text>
</g>
<!-- CoreModule&#45;&gt;FooterComponent  -->
<g id="edge14" class="edge">
<title>CoreModule&#45;&gt;FooterComponent </title>
<path fill="none" stroke="#000000" stroke-dasharray="5,2" d="M2384.3096,-161.9421C2384.3096,-157.5055 2384.3096,-154 2384.3096,-154 2384.3096,-154 2086,-154 2086,-154 2086,-154 2086,-132.0511 2086,-132.0511"/>
<polygon fill="#000000" stroke="#000000" points="2089.5001,-132.0511 2086,-122.0511 2082.5001,-132.0512 2089.5001,-132.0511"/>
</g>
<!-- NavigationComponent  -->
<g id="node16" class="node">
<title>NavigationComponent </title>
<polygon fill="#fb8072" stroke="#000000" points="2007.54,-122 1860.46,-122 1860.46,-86 2007.54,-86 2007.54,-122"/>
<text text-anchor="middle" x="1934" y="-99.8" font-family="Times,serif" font-size="14.00" fill="#000000">NavigationComponent </text>
</g>
<!-- CoreModule&#45;&gt;NavigationComponent  -->
<g id="edge15" class="edge">
<title>CoreModule&#45;&gt;NavigationComponent </title>
<path fill="none" stroke="#000000" stroke-dasharray="5,2" d="M2373.4644,-161.8321C2373.4644,-159.5522 2373.4644,-158 2373.4644,-158 2373.4644,-158 1998.7499,-158 1998.7499,-158 1998.7499,-158 1998.7499,-132.2819 1998.7499,-132.2819"/>
<polygon fill="#000000" stroke="#000000" points="2002.2499,-132.2819 1998.7499,-122.2819 1995.2499,-132.282 2002.2499,-132.2819"/>
</g>
<!-- MaterialModule -->
<g id="node6" class="node">
<title>MaterialModule</title>
<polygon fill="#8dd3c7" stroke="#000000" points="2344.4706,-198 2341.4706,-202 2320.4706,-202 2317.4706,-198 2237.5294,-198 2237.5294,-162 2344.4706,-162 2344.4706,-198"/>
<text text-anchor="middle" x="2291" y="-175.8" font-family="Times,serif" font-size="14.00" fill="#000000">MaterialModule</text>
</g>
<!-- MaterialModule&#45;&gt;AppModule -->
<g id="edge5" class="edge">
<title>MaterialModule&#45;&gt;AppModule</title>
<path fill="none" stroke="#000000" d="M2308.8284,-198.3228C2308.8284,-221.6602 2308.8284,-259 2308.8284,-259 2308.8284,-259 2639.0077,-259 2639.0077,-259"/>
<polygon fill="#000000" stroke="#000000" points="2639.0078,-262.5001 2649.0077,-259 2639.0077,-255.5001 2639.0078,-262.5001"/>
</g>
<!-- ProfileuserModule -->
<g id="node41" class="node">
<title>ProfileuserModule</title>
<polygon fill="#8dd3c7" stroke="#000000" points="1440.4692,-263 1437.4692,-267 1416.4692,-267 1413.4692,-263 1319.5308,-263 1319.5308,-227 1440.4692,-227 1440.4692,-263"/>
<text text-anchor="middle" x="1380" y="-240.8" font-family="Times,serif" font-size="14.00" fill="#000000">ProfileuserModule</text>
</g>
<!-- MaterialModule&#45;&gt;ProfileuserModule -->
<g id="edge35" class="edge">
<title>MaterialModule&#45;&gt;ProfileuserModule</title>
<path fill="none" stroke="#000000" d="M2273.1716,-198.308C2273.1716,-218.1455 2273.1716,-247 2273.1716,-247 2273.1716,-247 1450.6891,-247 1450.6891,-247"/>
<polygon fill="#000000" stroke="#000000" points="1450.6891,-243.5001 1440.6891,-247 1450.6891,-250.5001 1450.6891,-243.5001"/>
</g>
<!-- ErrorInterceptors -->
<g id="node8" class="node">
<title>ErrorInterceptors</title>
<ellipse fill="#fdb462" stroke="#000000" cx="2857" cy="-180" rx="77.5434" ry="18"/>
<text text-anchor="middle" x="2857" y="-175.8" font-family="Times,serif" font-size="14.00" fill="#000000">ErrorInterceptors</text>
</g>
<!-- ErrorInterceptors&#45;&gt;AppModule -->
<g id="edge7" class="edge">
<title>ErrorInterceptors&#45;&gt;AppModule</title>
<path fill="none" stroke="#000000" d="M2857,-198.027C2857,-214.3976 2857,-236 2857,-236 2857,-236 2742.8888,-236 2742.8888,-236"/>
<polygon fill="#000000" stroke="#000000" points="2742.8888,-232.5001 2732.8888,-236 2742.8888,-239.5001 2742.8888,-232.5001"/>
</g>
<!-- JwtInterceptors -->
<g id="node9" class="node">
<title>JwtInterceptors</title>
<ellipse fill="#fdb462" stroke="#000000" cx="2691" cy="-180" rx="70.62" ry="18"/>
<text text-anchor="middle" x="2691" y="-175.8" font-family="Times,serif" font-size="14.00" fill="#000000">JwtInterceptors</text>
</g>
<!-- JwtInterceptors&#45;&gt;AppModule -->
<g id="edge8" class="edge">
<title>JwtInterceptors&#45;&gt;AppModule</title>
<path fill="none" stroke="#000000" d="M2691,-198.1061C2691,-198.1061 2691,-216.991 2691,-216.991"/>
<polygon fill="#000000" stroke="#000000" points="2687.5001,-216.9909 2691,-226.991 2694.5001,-216.991 2687.5001,-216.9909"/>
</g>
<!-- Error403Component -->
<g id="node10" class="node">
<title>Error403Component</title>
<polygon fill="#ffffb3" stroke="#000000" points="2933.8669,-122 2802.1331,-122 2802.1331,-86 2933.8669,-86 2933.8669,-122"/>
<text text-anchor="middle" x="2868" y="-99.8" font-family="Times,serif" font-size="14.00" fill="#000000">Error403Component</text>
</g>
<!-- Error403Component&#45;&gt;CoreModule -->
<g id="edge9" class="edge">
<title>Error403Component&#45;&gt;CoreModule</title>
<path fill="none" stroke="#000000" d="M2868,-122.1025C2868,-133.0859 2868,-145 2868,-145 2868,-145 2438.5356,-145 2438.5356,-145 2438.5356,-145 2438.5356,-151.68 2438.5356,-151.68"/>
<polygon fill="#000000" stroke="#000000" points="2435.0357,-151.6799 2438.5356,-161.68 2442.0357,-151.68 2435.0357,-151.6799"/>
</g>
<!-- FooterComponent -->
<g id="node11" class="node">
<title>FooterComponent</title>
<polygon fill="#ffffb3" stroke="#000000" points="2783.8809,-122 2666.1191,-122 2666.1191,-86 2783.8809,-86 2783.8809,-122"/>
<text text-anchor="middle" x="2725" y="-99.8" font-family="Times,serif" font-size="14.00" fill="#000000">FooterComponent</text>
</g>
<!-- FooterComponent&#45;&gt;CoreModule -->
<g id="edge10" class="edge">
<title>FooterComponent&#45;&gt;CoreModule</title>
<path fill="none" stroke="#000000" d="M2713.8098,-122.4218C2713.8098,-131.2791 2713.8098,-140 2713.8098,-140 2713.8098,-140 2427.6904,-140 2427.6904,-140 2427.6904,-140 2427.6904,-151.8726 2427.6904,-151.8726"/>
<polygon fill="#000000" stroke="#000000" points="2424.1905,-151.8725 2427.6904,-161.8726 2431.1905,-151.8726 2424.1905,-151.8725"/>
</g>
<!-- NavigationComponent -->
<g id="node12" class="node">
<title>NavigationComponent</title>
<polygon fill="#ffffb3" stroke="#000000" points="2647.5407,-122 2504.4593,-122 2504.4593,-86 2647.5407,-86 2647.5407,-122"/>
<text text-anchor="middle" x="2576" y="-99.8" font-family="Times,serif" font-size="14.00" fill="#000000">NavigationComponent</text>
</g>
<!-- NavigationComponent&#45;&gt;CoreModule -->
<g id="edge11" class="edge">
<title>NavigationComponent&#45;&gt;CoreModule</title>
<path fill="none" stroke="#000000" d="M2550.3085,-122.2434C2550.3085,-129.4297 2550.3085,-136 2550.3085,-136 2550.3085,-136 2416.8452,-136 2416.8452,-136 2416.8452,-136 2416.8452,-151.8495 2416.8452,-151.8495"/>
<polygon fill="#000000" stroke="#000000" points="2413.3453,-151.8494 2416.8452,-161.8495 2420.3453,-151.8495 2413.3453,-151.8494"/>
</g>
<!-- NotauthorizedComponent -->
<g id="node13" class="node">
<title>NotauthorizedComponent</title>
<polygon fill="#ffffb3" stroke="#000000" points="2486.9157,-122 2325.0843,-122 2325.0843,-86 2486.9157,-86 2486.9157,-122"/>
<text text-anchor="middle" x="2406" y="-99.8" font-family="Times,serif" font-size="14.00" fill="#000000">NotauthorizedComponent</text>
</g>
<!-- NotauthorizedComponent&#45;&gt;CoreModule -->
<g id="edge12" class="edge">
<title>NotauthorizedComponent&#45;&gt;CoreModule</title>
<path fill="none" stroke="#000000" d="M2406,-122.0109C2406,-122.0109 2406,-151.855 2406,-151.855"/>
<polygon fill="#000000" stroke="#000000" points="2402.5001,-151.8549 2406,-161.855 2409.5001,-151.855 2402.5001,-151.8549"/>
</g>
<!-- SnackBarComponent -->
<g id="node14" class="node">
<title>SnackBarComponent</title>
<polygon fill="#ffffb3" stroke="#000000" points="2306.7562,-122 2171.2438,-122 2171.2438,-86 2306.7562,-86 2306.7562,-122"/>
<text text-anchor="middle" x="2239" y="-99.8" font-family="Times,serif" font-size="14.00" fill="#000000">SnackBarComponent</text>
</g>
<!-- SnackBarComponent&#45;&gt;CoreModule -->
<g id="edge13" class="edge">
<title>SnackBarComponent&#45;&gt;CoreModule</title>
<path fill="none" stroke="#000000" d="M2272.1964,-122.0439C2272.1964,-134.5633 2272.1964,-149 2272.1964,-149 2272.1964,-149 2395.1548,-149 2395.1548,-149 2395.1548,-149 2395.1548,-151.9672 2395.1548,-151.9672"/>
<polygon fill="#000000" stroke="#000000" points="2391.6549,-151.9671 2395.1548,-161.9672 2398.6549,-151.9672 2391.6549,-151.9671"/>
</g>
<!-- DocteursComponent -->
<g id="node17" class="node">
<title>DocteursComponent</title>
<polygon fill="#ffffb3" stroke="#000000" points="3576.8641,-122 3445.1359,-122 3445.1359,-86 3576.8641,-86 3576.8641,-122"/>
<text text-anchor="middle" x="3511" y="-99.8" font-family="Times,serif" font-size="14.00" fill="#000000">DocteursComponent</text>
</g>
<!-- DocteursModule -->
<g id="node18" class="node">
<title>DocteursModule</title>
<polygon fill="#8dd3c7" stroke="#000000" points="3482.0814,-198 3479.0814,-202 3458.0814,-202 3455.0814,-198 3371.9186,-198 3371.9186,-162 3482.0814,-162 3482.0814,-198"/>
<text text-anchor="middle" x="3427" y="-175.8" font-family="Times,serif" font-size="14.00" fill="#000000">DocteursModule</text>
</g>
<!-- DocteursComponent&#45;&gt;DocteursModule -->
<g id="edge16" class="edge">
<title>DocteursComponent&#45;&gt;DocteursModule</title>
<path fill="none" stroke="#000000" d="M3463.5544,-122.0109C3463.5544,-122.0109 3463.5544,-151.855 3463.5544,-151.855"/>
<polygon fill="#000000" stroke="#000000" points="3460.0544,-151.8549 3463.5544,-161.855 3467.0544,-151.855 3460.0544,-151.8549"/>
</g>
<!-- DocteursRoutingModule -->
<g id="node19" class="node">
<title>DocteursRoutingModule</title>
<polygon fill="#8dd3c7" stroke="#000000" points="3420.6993,-122 3417.6993,-126 3396.6993,-126 3393.6993,-122 3265.3007,-122 3265.3007,-86 3420.6993,-86 3420.6993,-122"/>
<text text-anchor="middle" x="3343" y="-99.8" font-family="Times,serif" font-size="14.00" fill="#000000">DocteursRoutingModule</text>
</g>
<!-- DocteursRoutingModule&#45;&gt;DocteursModule -->
<g id="edge17" class="edge">
<title>DocteursRoutingModule&#45;&gt;DocteursModule</title>
<path fill="none" stroke="#000000" d="M3396.2795,-122.0109C3396.2795,-122.0109 3396.2795,-151.855 3396.2795,-151.855"/>
<polygon fill="#000000" stroke="#000000" points="3392.7795,-151.8549 3396.2795,-161.855 3399.7795,-151.855 3392.7795,-151.8549"/>
</g>
<!-- EndpointComponent -->
<g id="node20" class="node">
<title>EndpointComponent</title>
<polygon fill="#ffffb3" stroke="#000000" points="3929.1666,-122 3796.8334,-122 3796.8334,-86 3929.1666,-86 3929.1666,-122"/>
<text text-anchor="middle" x="3863" y="-99.8" font-family="Times,serif" font-size="14.00" fill="#000000">EndpointComponent</text>
</g>
<!-- EndpointModule -->
<g id="node21" class="node">
<title>EndpointModule</title>
<polygon fill="#8dd3c7" stroke="#000000" points="3834.3837,-198 3831.3837,-202 3810.3837,-202 3807.3837,-198 3723.6163,-198 3723.6163,-162 3834.3837,-162 3834.3837,-198"/>
<text text-anchor="middle" x="3779" y="-175.8" font-family="Times,serif" font-size="14.00" fill="#000000">EndpointModule</text>
</g>
<!-- EndpointComponent&#45;&gt;EndpointModule -->
<g id="edge18" class="edge">
<title>EndpointComponent&#45;&gt;EndpointModule</title>
<path fill="none" stroke="#000000" d="M3815.5544,-122.0109C3815.5544,-122.0109 3815.5544,-151.855 3815.5544,-151.855"/>
<polygon fill="#000000" stroke="#000000" points="3812.0544,-151.8549 3815.5544,-161.855 3819.0544,-151.855 3812.0544,-151.8549"/>
</g>
<!-- EndpointRoutingModule -->
<g id="node22" class="node">
<title>EndpointRoutingModule</title>
<polygon fill="#8dd3c7" stroke="#000000" points="3773.0014,-122 3770.0014,-126 3749.0014,-126 3746.0014,-122 3616.9986,-122 3616.9986,-86 3773.0014,-86 3773.0014,-122"/>
<text text-anchor="middle" x="3695" y="-99.8" font-family="Times,serif" font-size="14.00" fill="#000000">EndpointRoutingModule</text>
</g>
<!-- EndpointRoutingModule&#45;&gt;EndpointModule -->
<g id="edge19" class="edge">
<title>EndpointRoutingModule&#45;&gt;EndpointModule</title>
<path fill="none" stroke="#000000" d="M3748.2795,-122.0109C3748.2795,-122.0109 3748.2795,-151.855 3748.2795,-151.855"/>
<polygon fill="#000000" stroke="#000000" points="3744.7795,-151.8549 3748.2795,-161.855 3751.7795,-151.855 3744.7795,-151.8549"/>
</g>
<!-- Error404Component -->
<g id="node23" class="node">
<title>Error404Component</title>
<polygon fill="#ffffb3" stroke="#000000" points="4280.8669,-122 4149.1331,-122 4149.1331,-86 4280.8669,-86 4280.8669,-122"/>
<text text-anchor="middle" x="4215" y="-99.8" font-family="Times,serif" font-size="14.00" fill="#000000">Error404Component</text>
</g>
<!-- Error404Module -->
<g id="node24" class="node">
<title>Error404Module</title>
<polygon fill="#8dd3c7" stroke="#000000" points="4186.0842,-198 4183.0842,-202 4162.0842,-202 4159.0842,-198 4075.9158,-198 4075.9158,-162 4186.0842,-162 4186.0842,-198"/>
<text text-anchor="middle" x="4131" y="-175.8" font-family="Times,serif" font-size="14.00" fill="#000000">Error404Module</text>
</g>
<!-- Error404Component&#45;&gt;Error404Module -->
<g id="edge20" class="edge">
<title>Error404Component&#45;&gt;Error404Module</title>
<path fill="none" stroke="#000000" d="M4167.5544,-122.0109C4167.5544,-122.0109 4167.5544,-151.855 4167.5544,-151.855"/>
<polygon fill="#000000" stroke="#000000" points="4164.0544,-151.8549 4167.5544,-161.855 4171.0544,-151.855 4164.0544,-151.8549"/>
</g>
<!-- Error404RoutingModule -->
<g id="node25" class="node">
<title>Error404RoutingModule</title>
<polygon fill="#8dd3c7" stroke="#000000" points="4124.7021,-122 4121.7021,-126 4100.7021,-126 4097.7021,-122 3969.2979,-122 3969.2979,-86 4124.7021,-86 4124.7021,-122"/>
<text text-anchor="middle" x="4047" y="-99.8" font-family="Times,serif" font-size="14.00" fill="#000000">Error404RoutingModule</text>
</g>
<!-- Error404RoutingModule&#45;&gt;Error404Module -->
<g id="edge21" class="edge">
<title>Error404RoutingModule&#45;&gt;Error404Module</title>
<path fill="none" stroke="#000000" d="M4100.2795,-122.0109C4100.2795,-122.0109 4100.2795,-151.855 4100.2795,-151.855"/>
<polygon fill="#000000" stroke="#000000" points="4096.7795,-151.8549 4100.2795,-161.855 4103.7795,-151.855 4096.7795,-151.8549"/>
</g>
<!-- LoginComponent -->
<g id="node26" class="node">
<title>LoginComponent</title>
<polygon fill="#ffffb3" stroke="#000000" points="4597.2758,-122 4482.7242,-122 4482.7242,-86 4597.2758,-86 4597.2758,-122"/>
<text text-anchor="middle" x="4540" y="-99.8" font-family="Times,serif" font-size="14.00" fill="#000000">LoginComponent</text>
</g>
<!-- LoginModule -->
<g id="node27" class="node">
<title>LoginModule</title>
<polygon fill="#8dd3c7" stroke="#000000" points="4511.493,-198 4508.493,-202 4487.493,-202 4484.493,-198 4418.507,-198 4418.507,-162 4511.493,-162 4511.493,-198"/>
<text text-anchor="middle" x="4465" y="-175.8" font-family="Times,serif" font-size="14.00" fill="#000000">LoginModule</text>
</g>
<!-- LoginComponent&#45;&gt;LoginModule -->
<g id="edge22" class="edge">
<title>LoginComponent&#45;&gt;LoginModule</title>
<path fill="none" stroke="#000000" d="M4497.0544,-122.0109C4497.0544,-122.0109 4497.0544,-151.855 4497.0544,-151.855"/>
<polygon fill="#000000" stroke="#000000" points="4493.5544,-151.8549 4497.0544,-161.855 4500.5544,-151.855 4493.5544,-151.8549"/>
</g>
<!-- LoginRoutingModule -->
<g id="node28" class="node">
<title>LoginRoutingModule</title>
<polygon fill="#8dd3c7" stroke="#000000" points="4459.1108,-122 4456.1108,-126 4435.1108,-126 4432.1108,-122 4320.8892,-122 4320.8892,-86 4459.1108,-86 4459.1108,-122"/>
<text text-anchor="middle" x="4390" y="-99.8" font-family="Times,serif" font-size="14.00" fill="#000000">LoginRoutingModule</text>
</g>
<!-- LoginRoutingModule&#45;&gt;LoginModule -->
<g id="edge23" class="edge">
<title>LoginRoutingModule&#45;&gt;LoginModule</title>
<path fill="none" stroke="#000000" d="M4438.7795,-122.0109C4438.7795,-122.0109 4438.7795,-151.855 4438.7795,-151.855"/>
<polygon fill="#000000" stroke="#000000" points="4435.2795,-151.8549 4438.7795,-161.855 4442.2795,-151.855 4435.2795,-151.8549"/>
</g>
<!-- PatientsComponent -->
<g id="node29" class="node">
<title>PatientsComponent</title>
<polygon fill="#ffffb3" stroke="#000000" points="4934.6611,-122 4809.3389,-122 4809.3389,-86 4934.6611,-86 4934.6611,-122"/>
<text text-anchor="middle" x="4872" y="-99.8" font-family="Times,serif" font-size="14.00" fill="#000000">PatientsComponent</text>
</g>
<!-- PatientsModule -->
<g id="node30" class="node">
<title>PatientsModule</title>
<polygon fill="#8dd3c7" stroke="#000000" points="4842.8781,-198 4839.8781,-202 4818.8781,-202 4815.8781,-198 4739.1219,-198 4739.1219,-162 4842.8781,-162 4842.8781,-198"/>
<text text-anchor="middle" x="4791" y="-175.8" font-family="Times,serif" font-size="14.00" fill="#000000">PatientsModule</text>
</g>
<!-- PatientsComponent&#45;&gt;PatientsModule -->
<g id="edge24" class="edge">
<title>PatientsComponent&#45;&gt;PatientsModule</title>
<path fill="none" stroke="#000000" d="M4826.0544,-122.0109C4826.0544,-122.0109 4826.0544,-151.855 4826.0544,-151.855"/>
<polygon fill="#000000" stroke="#000000" points="4822.5544,-151.8549 4826.0544,-161.855 4829.5544,-151.855 4822.5544,-151.8549"/>
</g>
<!-- PatientsRoutingModule -->
<g id="node31" class="node">
<title>PatientsRoutingModule</title>
<polygon fill="#8dd3c7" stroke="#000000" points="4785.4958,-122 4782.4958,-126 4761.4958,-126 4758.4958,-122 4636.5042,-122 4636.5042,-86 4785.4958,-86 4785.4958,-122"/>
<text text-anchor="middle" x="4711" y="-99.8" font-family="Times,serif" font-size="14.00" fill="#000000">PatientsRoutingModule</text>
</g>
<!-- PatientsRoutingModule&#45;&gt;PatientsModule -->
<g id="edge25" class="edge">
<title>PatientsRoutingModule&#45;&gt;PatientsModule</title>
<path fill="none" stroke="#000000" d="M4762.2795,-122.0109C4762.2795,-122.0109 4762.2795,-151.855 4762.2795,-151.855"/>
<polygon fill="#000000" stroke="#000000" points="4758.7795,-151.8549 4762.2795,-161.855 4765.7795,-151.855 4758.7795,-151.8549"/>
</g>
<!-- CardCreateDocteurComponent -->
<g id="node32" class="node">
<title>CardCreateDocteurComponent</title>
<polygon fill="#ffffb3" stroke="#000000" points="2198.1629,-198 2007.8371,-198 2007.8371,-162 2198.1629,-162 2198.1629,-198"/>
<text text-anchor="middle" x="2103" y="-175.8" font-family="Times,serif" font-size="14.00" fill="#000000">CardCreateDocteurComponent</text>
</g>
<!-- CardCreateDocteurComponent&#45;&gt;ProfileuserModule -->
<g id="edge26" class="edge">
<title>CardCreateDocteurComponent&#45;&gt;ProfileuserModule</title>
<path fill="none" stroke="#000000" d="M2103,-198.2222C2103,-216.8285 2103,-243 2103,-243 2103,-243 1450.7089,-243 1450.7089,-243"/>
<polygon fill="#000000" stroke="#000000" points="1450.7089,-239.5001 1440.7089,-243 1450.7089,-246.5001 1450.7089,-239.5001"/>
</g>
<!-- CardCreatePatientComponent -->
<g id="node33" class="node">
<title>CardCreatePatientComponent</title>
<polygon fill="#ffffb3" stroke="#000000" points="1989.9594,-198 1806.0406,-198 1806.0406,-162 1989.9594,-162 1989.9594,-198"/>
<text text-anchor="middle" x="1898" y="-175.8" font-family="Times,serif" font-size="14.00" fill="#000000">CardCreatePatientComponent</text>
</g>
<!-- CardCreatePatientComponent&#45;&gt;ProfileuserModule -->
<g id="edge27" class="edge">
<title>CardCreatePatientComponent&#45;&gt;ProfileuserModule</title>
<path fill="none" stroke="#000000" d="M1898,-198.0225C1898,-215.3734 1898,-239 1898,-239 1898,-239 1450.6895,-239 1450.6895,-239"/>
<polygon fill="#000000" stroke="#000000" points="1450.6895,-235.5001 1440.6895,-239 1450.6894,-242.5001 1450.6895,-235.5001"/>
</g>
<!-- CardDocteurComponent -->
<g id="node34" class="node">
<title>CardDocteurComponent</title>
<polygon fill="#ffffb3" stroke="#000000" points="1787.6316,-198 1634.3684,-198 1634.3684,-162 1787.6316,-162 1787.6316,-198"/>
<text text-anchor="middle" x="1711" y="-175.8" font-family="Times,serif" font-size="14.00" fill="#000000">CardDocteurComponent</text>
</g>
<!-- CardDocteurComponent&#45;&gt;ProfileuserModule -->
<g id="edge28" class="edge">
<title>CardDocteurComponent&#45;&gt;ProfileuserModule</title>
<path fill="none" stroke="#000000" d="M1711,-198.0091C1711,-214.0494 1711,-235 1711,-235 1711,-235 1450.7105,-235 1450.7105,-235"/>
<polygon fill="#000000" stroke="#000000" points="1450.7105,-231.5001 1440.7105,-235 1450.7105,-238.5001 1450.7105,-231.5001"/>
</g>
<!-- CardPatientComponent -->
<g id="node35" class="node">
<title>CardPatientComponent</title>
<polygon fill="#ffffb3" stroke="#000000" points="1615.9284,-198 1468.0716,-198 1468.0716,-162 1615.9284,-162 1615.9284,-198"/>
<text text-anchor="middle" x="1542" y="-175.8" font-family="Times,serif" font-size="14.00" fill="#000000">CardPatientComponent</text>
</g>
<!-- CardPatientComponent&#45;&gt;ProfileuserModule -->
<g id="edge29" class="edge">
<title>CardPatientComponent&#45;&gt;ProfileuserModule</title>
<path fill="none" stroke="#000000" d="M1542,-198.1243C1542,-212.7832 1542,-231 1542,-231 1542,-231 1450.7837,-231 1450.7837,-231"/>
<polygon fill="#000000" stroke="#000000" points="1450.7838,-227.5001 1440.7837,-231 1450.7837,-234.5001 1450.7838,-227.5001"/>
</g>
<!-- CardprofilComponent -->
<g id="node36" class="node">
<title>CardprofilComponent</title>
<polygon fill="#ffffb3" stroke="#000000" points="1449.647,-198 1310.353,-198 1310.353,-162 1449.647,-162 1449.647,-198"/>
<text text-anchor="middle" x="1380" y="-175.8" font-family="Times,serif" font-size="14.00" fill="#000000">CardprofilComponent</text>
</g>
<!-- CardprofilComponent&#45;&gt;ProfileuserModule -->
<g id="edge30" class="edge">
<title>CardprofilComponent&#45;&gt;ProfileuserModule</title>
<path fill="none" stroke="#000000" d="M1380,-198.1061C1380,-198.1061 1380,-216.991 1380,-216.991"/>
<polygon fill="#000000" stroke="#000000" points="1376.5001,-216.9909 1380,-226.991 1383.5001,-216.991 1376.5001,-216.9909"/>
</g>
<!-- DetailOtherProfilsComponent -->
<g id="node37" class="node">
<title>DetailOtherProfilsComponent</title>
<polygon fill="#ffffb3" stroke="#000000" points="1292.2422,-198 1107.7578,-198 1107.7578,-162 1292.2422,-162 1292.2422,-198"/>
<text text-anchor="middle" x="1200" y="-175.8" font-family="Times,serif" font-size="14.00" fill="#000000">DetailOtherProfilsComponent</text>
</g>
<!-- DetailOtherProfilsComponent&#45;&gt;ProfileuserModule -->
<g id="edge31" class="edge">
<title>DetailOtherProfilsComponent&#45;&gt;ProfileuserModule</title>
<path fill="none" stroke="#000000" d="M1200,-198.2396C1200,-213.5706 1200,-233 1200,-233 1200,-233 1309.3112,-233 1309.3112,-233"/>
<polygon fill="#000000" stroke="#000000" points="1309.3112,-236.5001 1319.3112,-233 1309.3111,-229.5001 1309.3112,-236.5001"/>
</g>
<!-- DetailProfilDocteursComponent -->
<g id="node38" class="node">
<title>DetailProfilDocteursComponent</title>
<polygon fill="#ffffb3" stroke="#000000" points="1089.9566,-198 892.0434,-198 892.0434,-162 1089.9566,-162 1089.9566,-198"/>
<text text-anchor="middle" x="991" y="-175.8" font-family="Times,serif" font-size="14.00" fill="#000000">DetailProfilDocteursComponent</text>
</g>
<!-- DetailProfilDocteursComponent&#45;&gt;ProfileuserModule -->
<g id="edge32" class="edge">
<title>DetailProfilDocteursComponent&#45;&gt;ProfileuserModule</title>
<path fill="none" stroke="#000000" d="M991,-198.0225C991,-215.3734 991,-239 991,-239 991,-239 1309.2188,-239 1309.2188,-239"/>
<polygon fill="#000000" stroke="#000000" points="1309.2188,-242.5001 1319.2188,-239 1309.2187,-235.5001 1309.2188,-242.5001"/>
</g>
<!-- DetailProfilPatientsComponent -->
<g id="node39" class="node">
<title>DetailProfilPatientsComponent</title>
<polygon fill="#ffffb3" stroke="#000000" points="873.7534,-198 682.2466,-198 682.2466,-162 873.7534,-162 873.7534,-198"/>
<text text-anchor="middle" x="778" y="-175.8" font-family="Times,serif" font-size="14.00" fill="#000000">DetailProfilPatientsComponent</text>
</g>
<!-- DetailProfilPatientsComponent&#45;&gt;ProfileuserModule -->
<g id="edge33" class="edge">
<title>DetailProfilPatientsComponent&#45;&gt;ProfileuserModule</title>
<path fill="none" stroke="#000000" d="M778,-198.1061C778,-217.3391 778,-245 778,-245 778,-245 1309.5216,-245 1309.5216,-245"/>
<polygon fill="#000000" stroke="#000000" points="1309.5217,-248.5001 1319.5216,-245 1309.5216,-241.5001 1309.5217,-248.5001"/>
</g>
<!-- ProfileuserComponent -->
<g id="node40" class="node">
<title>ProfileuserComponent</title>
<polygon fill="#ffffb3" stroke="#000000" points="664.252,-198 521.748,-198 521.748,-162 664.252,-162 664.252,-198"/>
<text text-anchor="middle" x="593" y="-175.8" font-family="Times,serif" font-size="14.00" fill="#000000">ProfileuserComponent</text>
</g>
<!-- ProfileuserComponent&#45;&gt;ProfileuserModule -->
<g id="edge34" class="edge">
<title>ProfileuserComponent&#45;&gt;ProfileuserModule</title>
<path fill="none" stroke="#000000" d="M593,-198.2843C593,-219.3211 593,-251 593,-251 593,-251 1309.2266,-251 1309.2266,-251"/>
<polygon fill="#000000" stroke="#000000" points="1309.2267,-254.5001 1319.2266,-251 1309.2266,-247.5001 1309.2267,-254.5001"/>
</g>
<!-- SharedModule -->
<g id="node42" class="node">
<title>SharedModule</title>
<polygon fill="#8dd3c7" stroke="#000000" points="498.4231,-198 495.4231,-202 474.4231,-202 471.4231,-198 399.5769,-198 399.5769,-162 498.4231,-162 498.4231,-198"/>
<text text-anchor="middle" x="449" y="-175.8" font-family="Times,serif" font-size="14.00" fill="#000000">SharedModule</text>
</g>
<!-- SharedModule&#45;&gt;ProfileuserModule -->
<g id="edge36" class="edge">
<title>SharedModule&#45;&gt;ProfileuserModule</title>
<path fill="none" stroke="#000000" d="M449,-198.2479C449,-221.0179 449,-257 449,-257 449,-257 1309.2736,-257 1309.2736,-257"/>
<polygon fill="#000000" stroke="#000000" points="1309.2737,-260.5001 1319.2736,-257 1309.2736,-253.5001 1309.2737,-260.5001"/>
</g>
<!-- AndSoOnPipe  -->
<g id="node52" class="node">
<title>AndSoOnPipe </title>
<polygon fill="#fb8072" stroke="#000000" points="329.3843,-122 228.6157,-122 228.6157,-86 329.3843,-86 329.3843,-122"/>
<text text-anchor="middle" x="279" y="-99.8" font-family="Times,serif" font-size="14.00" fill="#000000">AndSoOnPipe </text>
</g>
<!-- SharedModule&#45;&gt;AndSoOnPipe  -->
<g id="edge44" class="edge">
<title>SharedModule&#45;&gt;AndSoOnPipe </title>
<path fill="none" stroke="#000000" stroke-dasharray="5,2" d="M399.372,-174C349.1941,-174 279,-174 279,-174 279,-174 279,-132.0267 279,-132.0267"/>
<polygon fill="#000000" stroke="#000000" points="282.5001,-132.0267 279,-122.0267 275.5001,-132.0268 282.5001,-132.0267"/>
</g>
<!-- FieldErrorDisplayComponent  -->
<g id="node53" class="node">
<title>FieldErrorDisplayComponent </title>
<polygon fill="#fb8072" stroke="#000000" points="210.1925,-122 23.8075,-122 23.8075,-86 210.1925,-86 210.1925,-122"/>
<text text-anchor="middle" x="117" y="-99.8" font-family="Times,serif" font-size="14.00" fill="#000000">FieldErrorDisplayComponent </text>
</g>
<!-- SharedModule&#45;&gt;FieldErrorDisplayComponent  -->
<g id="edge45" class="edge">
<title>SharedModule&#45;&gt;FieldErrorDisplayComponent </title>
<path fill="none" stroke="#000000" stroke-dasharray="5,2" d="M399.6547,-186C307.1698,-186 117,-186 117,-186 117,-186 117,-132.1985 117,-132.1985"/>
<polygon fill="#000000" stroke="#000000" points="120.5001,-132.1984 117,-122.1985 113.5001,-132.1985 120.5001,-132.1984"/>
</g>
<!-- RegisterComponent -->
<g id="node43" class="node">
<title>RegisterComponent</title>
<polygon fill="#ffffb3" stroke="#000000" points="5278.9846,-122 5151.0154,-122 5151.0154,-86 5278.9846,-86 5278.9846,-122"/>
<text text-anchor="middle" x="5215" y="-99.8" font-family="Times,serif" font-size="14.00" fill="#000000">RegisterComponent</text>
</g>
<!-- RegisterModule -->
<g id="node44" class="node">
<title>RegisterModule</title>
<polygon fill="#8dd3c7" stroke="#000000" points="5186.2022,-198 5183.2022,-202 5162.2022,-202 5159.2022,-198 5079.7978,-198 5079.7978,-162 5186.2022,-162 5186.2022,-198"/>
<text text-anchor="middle" x="5133" y="-175.8" font-family="Times,serif" font-size="14.00" fill="#000000">RegisterModule</text>
</g>
<!-- RegisterComponent&#45;&gt;RegisterModule -->
<g id="edge37" class="edge">
<title>RegisterComponent&#45;&gt;RegisterModule</title>
<path fill="none" stroke="#000000" d="M5168.5544,-122.0109C5168.5544,-122.0109 5168.5544,-151.855 5168.5544,-151.855"/>
<polygon fill="#000000" stroke="#000000" points="5165.0544,-151.8549 5168.5544,-161.855 5172.0544,-151.855 5165.0544,-151.8549"/>
</g>
<!-- RegisterRoutingModule -->
<g id="node45" class="node">
<title>RegisterRoutingModule</title>
<polygon fill="#8dd3c7" stroke="#000000" points="5126.8201,-122 5123.8201,-126 5102.8201,-126 5099.8201,-122 4975.1799,-122 4975.1799,-86 5126.8201,-86 5126.8201,-122"/>
<text text-anchor="middle" x="5051" y="-99.8" font-family="Times,serif" font-size="14.00" fill="#000000">RegisterRoutingModule</text>
</g>
<!-- RegisterRoutingModule&#45;&gt;RegisterModule -->
<g id="edge38" class="edge">
<title>RegisterRoutingModule&#45;&gt;RegisterModule</title>
<path fill="none" stroke="#000000" d="M5103.2795,-122.0109C5103.2795,-122.0109 5103.2795,-151.855 5103.2795,-151.855"/>
<polygon fill="#000000" stroke="#000000" points="5099.7795,-151.8549 5103.2795,-161.855 5106.7795,-151.855 5099.7795,-151.8549"/>
</g>
<!-- RendezvousComponent -->
<g id="node46" class="node">
<title>RendezvousComponent</title>
<polygon fill="#ffffb3" stroke="#000000" points="5666.7576,-122 5517.2424,-122 5517.2424,-86 5666.7576,-86 5666.7576,-122"/>
<text text-anchor="middle" x="5592" y="-99.8" font-family="Times,serif" font-size="14.00" fill="#000000">RendezvousComponent</text>
</g>
<!-- RendezvousModule -->
<g id="node47" class="node">
<title>RendezvousModule</title>
<polygon fill="#8dd3c7" stroke="#000000" points="5562.9748,-198 5559.9748,-202 5538.9748,-202 5535.9748,-198 5435.0252,-198 5435.0252,-162 5562.9748,-162 5562.9748,-198"/>
<text text-anchor="middle" x="5499" y="-175.8" font-family="Times,serif" font-size="14.00" fill="#000000">RendezvousModule</text>
</g>
<!-- RendezvousComponent&#45;&gt;RendezvousModule -->
<g id="edge39" class="edge">
<title>RendezvousComponent&#45;&gt;RendezvousModule</title>
<path fill="none" stroke="#000000" d="M5540.0544,-122.0109C5540.0544,-122.0109 5540.0544,-151.855 5540.0544,-151.855"/>
<polygon fill="#000000" stroke="#000000" points="5536.5544,-151.8549 5540.0544,-161.855 5543.5544,-151.855 5536.5544,-151.8549"/>
</g>
<!-- RendezvousRoutingModule -->
<g id="node48" class="node">
<title>RendezvousRoutingModule</title>
<polygon fill="#8dd3c7" stroke="#000000" points="5492.5926,-122 5489.5926,-126 5468.5926,-126 5465.5926,-122 5319.4074,-122 5319.4074,-86 5492.5926,-86 5492.5926,-122"/>
<text text-anchor="middle" x="5406" y="-99.8" font-family="Times,serif" font-size="14.00" fill="#000000">RendezvousRoutingModule</text>
</g>
<!-- RendezvousRoutingModule&#45;&gt;RendezvousModule -->
<g id="edge40" class="edge">
<title>RendezvousRoutingModule&#45;&gt;RendezvousModule</title>
<path fill="none" stroke="#000000" d="M5463.7795,-122.0109C5463.7795,-122.0109 5463.7795,-151.855 5463.7795,-151.855"/>
<polygon fill="#000000" stroke="#000000" points="5460.2795,-151.8549 5463.7795,-161.855 5467.2795,-151.855 5460.2795,-151.8549"/>
</g>
<!-- AndSoOnPipe -->
<g id="node49" class="node">
<title>AndSoOnPipe</title>
<polygon fill="#ffffb3" stroke="#000000" points="861.3837,-122 764.6163,-122 764.6163,-86 861.3837,-86 861.3837,-122"/>
<text text-anchor="middle" x="813" y="-99.8" font-family="Times,serif" font-size="14.00" fill="#000000">AndSoOnPipe</text>
</g>
<!-- AndSoOnPipe&#45;&gt;SharedModule -->
<g id="edge41" class="edge">
<title>AndSoOnPipe&#45;&gt;SharedModule</title>
<path fill="none" stroke="#000000" d="M813,-122.1592C813,-127.0433 813,-131 813,-131 813,-131 473.6056,-131 473.6056,-131 473.6056,-131 473.6056,-151.7542 473.6056,-151.7542"/>
<polygon fill="#000000" stroke="#000000" points="470.1056,-151.7542 473.6056,-161.7542 477.1056,-151.7542 470.1056,-151.7542"/>
</g>
<!-- FieldErrorDisplayComponent -->
<g id="node50" class="node">
<title>FieldErrorDisplayComponent</title>
<polygon fill="#ffffb3" stroke="#000000" points="746.6923,-122 563.3077,-122 563.3077,-86 746.6923,-86 746.6923,-122"/>
<text text-anchor="middle" x="655" y="-99.8" font-family="Times,serif" font-size="14.00" fill="#000000">FieldErrorDisplayComponent</text>
</g>
<!-- FieldErrorDisplayComponent&#45;&gt;SharedModule -->
<g id="edge42" class="edge">
<title>FieldErrorDisplayComponent&#45;&gt;SharedModule</title>
<path fill="none" stroke="#000000" d="M613.8899,-122.1223C613.8899,-124.9729 613.8899,-127 613.8899,-127 613.8899,-127 449,-127 449,-127 449,-127 449,-151.7604 449,-151.7604"/>
<polygon fill="#000000" stroke="#000000" points="445.5001,-151.7604 449,-161.7604 452.5001,-151.7604 445.5001,-151.7604"/>
</g>
<!-- MyErrorFormulaireComponent -->
<g id="node51" class="node">
<title>MyErrorFormulaireComponent</title>
<polygon fill="#ffffb3" stroke="#000000" points="545.0168,-122 352.9832,-122 352.9832,-86 545.0168,-86 545.0168,-122"/>
<text text-anchor="middle" x="449" y="-99.8" font-family="Times,serif" font-size="14.00" fill="#000000">MyErrorFormulaireComponent</text>
</g>
<!-- MyErrorFormulaireComponent&#45;&gt;SharedModule -->
<g id="edge43" class="edge">
<title>MyErrorFormulaireComponent&#45;&gt;SharedModule</title>
<path fill="none" stroke="#000000" d="M424.3945,-122.0109C424.3945,-122.0109 424.3945,-151.855 424.3945,-151.855"/>
<polygon fill="#000000" stroke="#000000" points="420.8945,-151.8549 424.3945,-161.855 427.8945,-151.855 420.8945,-151.8549"/>
</g>
</g>
</svg>
